<mxfile host="app.diagrams.net" agent="Mozilla/5.0 (Windows NT 10.0; Win64; x64) AppleWebKit/537.36 (KHTML, like Gecko) Chrome/134.0.0.0 Safari/537.36" version="26.0.13">
  <diagram name="Page-1" id="zg1iCinFp9hMTJWO_tWF">
    <mxGraphModel dx="2505" dy="962" grid="1" gridSize="10" guides="1" tooltips="1" connect="1" arrows="1" fold="1" page="1" pageScale="1" pageWidth="850" pageHeight="1100" math="0" shadow="0">
      <root>
        <mxCell id="0" />
        <mxCell id="1" parent="0" />
        <mxCell id="i9A8klj4mZGH6srluD6X-14" value="" style="shape=image;verticalLabelPosition=bottom;labelBackgroundColor=default;verticalAlign=top;aspect=fixed;imageAspect=0;image=data:image/png,iVBORw0KGgoAAAANSUhEUgAAAuYAAAIhCAYAAAACdH9fAAAAAXNSR0IArs4c6QAAAARnQU1BAACxjwv8YQUAAAAJcEhZcwAADsMAAA7DAcdvqGQAAKH9SURBVHhe7N15fFT12f//FxCMK6i4BGRLQsJMQspSWhUsIFRMyJ2gaCz71i+9W7hZCkjAG/EncitQiEFvo9/ylU22GkVCGhKxIGAVtRSwIWRIyCIgpGqt4kY0mt8f58zMmZMdQpgk7+fjMY9mPtfnfM6Z1AzXueY6Z1qUlpaWIyIiIiIil1VL+4CIiIiIiDQ8JeYiIiIiIn5AibmIiIiIiB9QYi4iIiIi4geUmIuIiIiI+AEl5iIiIiIifkCJuYiIiIiIH1BiLiIiIiLiB5SYi4iIiIj4ASXmIiIiIiJ+QIm5iIiIiIgfUGIuIiIiIuIHlJiLiIiIiPgBJeYiIiIiIn5AibmIiIiIiB9oUVpaWm4frIt3c0rY/tdi+7DIJdX2mitYMLaPfVj8wN687fz95H77sMgl1aVddx7s/Z/2YfEDJW8+wLdn/mIfFrmk2nT/T9r1XW4f9nv1kpin7i2k/c1t7CGRS+Krr78jsDVKzP3U3rztvFe8m3bXtbeHRC6Jf315ltCbeygx91Mlbz7AN6f+zFU39LSHRC6Jb//9AW0jZjbvxDy6v4PwLjfbwyL1bu32vykx92PuxHxw5EhuuPoWe1ikXv3w4w9s//tzSsz9mDsxD49+i5atrrKHRerV+XN5FL81utEm5uoxFxERERHxA0rMRURERET8gBJzERERERE/oMRcRERERMQPKDEXEREREfEDSsxFRERERPyAEnMRERERET+gxFxERERExA8oMRcRERER8QNKzEVERERE/IAScxERERERP6DEXERERETEDygxFxERERHxA0rMRURERET8gBLzerBvegDhQZU/5uyyz75Iu8YRPj3TPioifuR0SjyRQT0sj0T22yeJSOP1xkJadOhrPhay0xIqSknwxma8bYnUH/c+IlLO2EPSyCkxv8TSx0expsg+eoF2jSN8/Bb7qIj4kf3Te3Dv4kLbaAa/C4pnXX29F4iIHzlObrH75zNse0V/6HLhlJjXo7gNZeSVeB+rEwBySc20/JHuGudTUY9J8f0DPp0S5Vt1H5TEafd27qQ8NY7woHHs89lSRC67XYn8LhUgludLjpJTcpScktd52AFQyB+SjLq5u6IeNz2RuKAeRHqS9v3Ms1bap7vr7O5xb+V9/3RjTlzKR75zBq0z3jNEpIEU8eJOs3JdvIcXXfa4YecMd4XdVmUv3khEh760GLyRlZ45CawstsSqrL7vYYxnTXMbj7ctMdv2nn0uZMxgI67qu39QYt4AIroFGz9UUvEuWBzmbU3ZNY7Bi3N94rjmMcWWvIuIf9qfngFA7IZlDPCM3sbEtXMJcczl9We9owCFqRkUAjhG8Mvg/cwLmoqxgil1qpl4D+A/zBP9wiKAjyjMNtd4+Q3z5D2DDCDkoXvoaF1DRC6dB6MZDeS+socigHwXucDoB6N9pu2c0ZfYV6wjWcQO3mhs4+ZKZq5nThFzJycQ0S8ZT1bwykzGvOGZDUDukmQ2e54VMbefO+F/mzEdZlpixvYVkm9XFptdAMH8elgH35hcFkrM61H6eN/+8impQEI6K4cCFLHmSSMp91bW04kDSJ1ntLsMfcmn4p63YRQABbkuI2Y+JyGdvJKXGOjdtYhcdu5kOZb/GGoLBU8kfe/EigmzYy6vlxwlZ+9EOroT60Wv+1TaCxc/w35gQFwsUMirmR9B0Ru86q7KuXIp9JwUhPBAzG22nYjIpRPDmAcBl5GQ70zPAqIZE2ed8zabXgEcsyg8c5DyMwcpXBgMrmQW+iTawax45yDlZ1YxGsBVBAt3UH7mIBkPGjMO59sSa8+aO1jhAMhi0xvAG5lsBpzm9u547pIUn3547z5TmdPVJyCXiRLzSy01zmhXKXqNVBfgWM7vPf9ox/D7RU4gl5x8yzZFScQEBVSorotIY+CuatfMWt0+fcKoixUuvtdsZbmXP7jwrhfmJAQozC2AfCMZj02IBTL48y73SYGTEPMDOhFpGE5HsJkQuxNwB07rhOIiDmNUxEPMtpKQJcabhE+i7RjOiK4AwfRxGP/rrmIb+6ho9IKxGJEOjHjQ+Olw/hmK8o8DkLsk3mxliWeuC1s/vHWf4i+UmNcje4+5p+L98mucDnYSYd/Azt1/nuQk07K9iDQGtxESBVDIMeuJNkDROuIu+M4s5nrB9/CAA0jNYF56hlGZn20k67npzxgV9IRYSwuNiDSE4GHDcQKbn0rmMOB8cLCZLNcs11XLs/gqVKig16iIQ/b3J/ErSswbjINIh9Ez/rTnFoqZPL04F3ASGQb70s1Wl7gYAE6fOOLdXET8ntFuAhnjrUn4R6ybtIJCMvhdNRdmduxm1Ni8rSzex/KhALfxy4dCgAwyUgGHkxAzWXf3qsfGKS0XaXBdg+mN0XqSC/QOs/Vqu+OWVhbP45n+vnPryNPbbrkbTO+wDgSHdQefVhbvY9M9PkuIn1FiXo/sPebuVpTQh+6nI8FMfsSogHvnxZEOkLCcyZbTa3e8woWgbqlxhAfV420YRaR+DJ1h3oElg9957q7ibkkJ4eG1lfSZuw2NJdanlcV8WJL5jjEjCDF/Ntpg3FV6Ku9tF5EG0N/oMwejv7xC4mvGLa0sld9F5QJ41nS3qpj7vyfGuCjV08piPuwXnIrfUWJ+iYUuyidzqpl1Wy/gtMTznjUq5AOfNS8GBcDJ/AP5zHcAqZuNWyMOXWw8FxE/dRsT9x7l9UXu9NktludLdjCx2s+3B7C8JAWj5u4Wy/PWi0aDQzy9q85uxkWe7io9DqOtRUQa3rA48y4sD8YwzB4Ehj3jvYDTbfT6i7/g0rlwlnGhKJgXci4x99+fTe6LSD2iydjj7kkXf9WitLS03D5YF+/mlJC6t5Do/g7Cu9xsD4vUu7Xb/0Zga1gwto89JH5gb9523ivezeDIkdxw9S32sEi9+uHHH9j+9+cIvbkHD/b+T3tY/EDJmw/wzak/Ex79Fi1bXWUPi9Sr8+fyKH5rNG0jZtKu73J72O+pYi4iIiIi4geUmIuIiIiI+AEl5iIiIiIifkCJuYiIiIiIH1BiLiIiIiLiB5SYi4iIiIj4gXq7XWK/nsF0aX+DPSxS73bszeGqwBa6XaKfct8u8Wch99LmyhvtYZF69WP5j7yZ+yfdLtGPuW+X2LnfGlq2CrSHRerVd199yJnDjzTa2yXWS2L+yt5CLmoRkTq6qe2VSsz9lDsxF2lISsz9lzsxF2lIzT4x73LbjdzQ5mp7WKTe5Zwooc3VAUrM/dTevO28/+FuOrVzcGVrvSfIpVVe/iMn/nmEkJuUmPsrd2J+Q9eRtGgZYA+L1Kuy0n9z7qOM5p2Y65s/pSHpmz/9m775UxqSvvnT/+mbP6Uh6Zs/RURERETkoikxFxERERHxA0rMRURERET8gBJzERERERE/oMRcRERERMQPKDEXEREREfEDSsxF/EnGBAL7JFNsH78EipN6Vr6vgmR6Bk4gyz4uIrWSNTmQnkkV/rJqqZjkPoFMyLCPV6/Kv2cRaVSUmIv4k9j1lB6aRVf7uIg0GtFrSvlgtv6KRaTulJiL1IPipJ4EBgaaj54kF5iBgmR61mXcp2JuVM4CAwMJ7DOBCZ4qmllRmzzBu8/Jlvq2z9q2yneGe5uePHbUGnDLYkJEIi62MtyzreU4AuteyRNpbrwV8xr+VsliQlV/q9jfD8z3Gev21fw9Z032/s36VO8921SxTxG5rJSYi1ysjAl0X9CLtNJSSktLSRvjIvF/sox/lBMS6bXNGC/d1quGcV/FScNJZBnHS0spfQK25vjGtx7pbcS2jYRNiWZybyTW7rXTxmxluPsf9oJkeo7YyshtpZSWptH7iMt3QQCiWX9sGQ5Gkla6nmgga3J373FsG8nWEZYTCRGpUeV/q8Uk9xkO5t/q8aeOMNwnaa9BNX/PxUk9GX7E/Js9tgwWdDdPqLOYMOIIy45595l4wS03InIpNGhivm96AOFB9sc49lnj0zMr2SaKNUU+wzZFrBkUwJxd9vEa7BpH+KAkTpv7iUmpdieXnD8cg1yA2PWUmkksgKOHwzbBFLue0jXuWTWNF7N9o4uRT5htLbGPsyzSd4Zj7H1mbBQj3YMZW9jKSEbFGk+j/3sZjpzDuABch3FFLuPxWICuzHrCs1U1inEdwXYcLtam1cc/5vuZF9SDSPtj+n7vjOm+zz1jQfGsa9Z/Kh+xblAP5tX1PU8ui0r/Vgu2szbH+7fadfYHlbwPVKPKv2fjvcOzz9BZLBsDR45X/JvtOvsD/2q5Kd5IRIe+tLA9IlLOmBPeZkyHvox5w7qRMdZi8EYu9C1h5wzrPqpQvJGIDgvZaR8XqWcNmpgDkJBOXkmZ57Fn0RGm2JJxt33TA5iSvZw9JdlMDrZHRfyFb6tH9wXuylVXZh1KgxH2j42rGrdycdhWIbfr1b2qf1C3Mtz9UXVEIi6O4CqA4uNH7BNrwX4cXXH0sj6/eLEbjpJT4n68zsPZU6tMOPdP78HvsufyeskOJuo9QRqJSv9WXeYJ8wWq6e/ZtaC75z1p+CZwHXWZn4hNYm2E+f7glxeLBrPinYOUn3E/VtF7yUxWVnqgbzOmw0wOL9xB+Z6x6C1BmoKGT8xtOnbrBdm5nLaNn06JMpLyvbPpaBmzV9R9nEgixqzEeyrPRUnEWKry1ip5ne0aR/igccwZ5K72Wyr5tnWtx2pUwpOY4/6UYHqmEbevAcBrPvO8jE8F3J80eD4dKEoiJiiKmEG+nz5Iw/FpOSkt5fhT1op5NOvN8dJteNtKqhx3c9DbViGvtUjvsRiPD5gVCl27X0hGbT8Oo4J+6dxGSBTknvjIHuB0SryRlO+d6HlP2D+9B3EpFecarBX5RPYDFK0jLiieuEGWMbP67K7YGycFtor0rkTL/Jr2a9g/vQdx0xOJcx/DoHXm+4O92r2fee5PAIrWEReUyLqUePN44llXZHkdtk8POLHOs77P8RR5x63Hza5EIgfFGzHP8chl4ehNFZ+tVclIrg01/T0bLS6Wh7saHzqLD9zvVWPX0r0u7TOXRTB9HEUcyrePn2HlYCMpPza1gzn2NmM6JFSRxENRSoKlEl/ZvDOsHNyXMSneyr29kp7rWcN3+5rXFqmdy56Y70vfAlFOzz+0mEnt4MW9WG1JygE6Ts0m79kYy4iv9JdhdUkZeRtGUbA4vob2lwvk2gKPlJFXks98Ry5Lk6o5UbAoWHyY+JIy8g4sJzQ1jsG5y8krKWN1gu8aBYvXEnmgjLySdOJS4zwJ+L7pYSyNMj9t2DCK9PHWhD6XiEfKyCt5iYGeleTyyOIxT8U8iwnWCzsBejnoWuW4VVfuG+tg66Nmwp7xGIk1VNDB/Kg8J5HHzAs0jYtSzYq8T6yY5Ee3+m5bKaNC7nscDiYNr6QCWC/28+dUcHa7zWf0dEo89y528rwlKQcY8OxR0qf6zjV8xLpBU8Gsxr++KJffeZLaQpyPHCWnZBkDgP3T7+UPUSlGxX5DLBnj41lXdBu/fCjEc4Jw+kQuIQ4oLDLWLswO4YGYyvbrqzAVHi45Ss6BuYS4VvBMFZ8E+MrgVZ4np+QozycU8oc7VxBxwFwjdYVPC0/G4lzP+iz+nRnbz7w7V+A0X/vzCRn8zpqEu+CBA0fJsf0upYGFOujFVrZY/1YrnKADOWvZbl4/smWTZbzKv2fbe4d5gWnPpOJKb4VaZeudvyjew4uuYPqEWQfPsHJwPHN7rLIk5QD92XQmlTmVvT29sZCQJd3JMCvxGQ8WMTfpbfssADYvcbHizEHK35kFPtX6LF5klXf7yWb7TB3WFqlJwyfmqXE+PeZTspezx5psp8YxeHGudYtaC33ofuMfmqGjibMH680o4ocCBDP0Iac9WLWE0UbSHOwkAifzZxuvOdRpWyNhudm2E8PvFzlJT88EMtmRCnFx5u9p6GLmO3LJ8VQQnET6vGlJQ+o6exkjcxLpHhhIYOAWRm0bCUdcFBPN+m29SHR/bDwC0tZEG9XySsft66axDHPdV3tX6DGvnHHx5hGzTab7Alh2zN3/Hs36bSPZOiKQwMDuHB67rPKKnZkwuO/KEr3muPc4Rmxl5DajAl9fMsZbe8ynkrvodZYPtUxIncq9iwstA7VQ9AavumL5D3OdjlN3kPPsADMYQoTn78U4EYiNM2NDZ/Cwo5Bj+dCxm5PCl9/gNFCY6+ThR+BYvrk2I/hlbT43T4hlAEDwPTxQ6S+7Mt6kP8QZAglzjbad4BDs7zghi2aY60/k4YRCXs38CHZlkIH3tQ+YPZcQVy7e36CTkNocu1xi9r/VXqTZb5Uau964mDzCeG/pbf80roq/566zPyCtl/s9aThbx6QZveShs0h76oin1a37xkmk+VOPOQBFzO1n6THvl0zv9b7J9uYJ8cytax/QPUsoP7OEYeZTp6PqPwLnwqnGvK5jWfFgES/udFfNg/n1MONEYFic5T27DmuL1KThE3Nbj3merSoOo1hdUsbqhC1MqWPLSUS3BvhjcPTmQnKSUGft/lWubl76ePcJTRhLXXDshLt01ovQBnjpUhVLW0rpeqKt9yKPXW/5ONl7gWi1455/nLsy65A5579hbY6D3g7v+HrzojFj/5Zk2fJRtbuNxcOy3/WzZ/GBPREAy+txH5flOEqt+60fvj3mlVXAY3m+sspvdfKtiahdxcTUe3JwL39wma00Q2OJdeVSyH7+nO0kJMxJbvp+Y+2okFpVm0OcF/JuUfH4qmL/ZMErg9+5T3buXEEhuWa1H3A4CbHNlvrlvY95Xf5Wff/e3NtEr/HGZ9kvEK3m79m7naWNxUzaPeOV/v1fbvYe84Nsusc25cFVlJ9ZxehXZlZoNama0abiTvhDllT9kXrvMGsV3qo7zkp/YbVfW6QmDZ+Y18SsLA98Np/5zGNKPd+l5PSJS9og61GQe2FV/4JcbxnAdw0n8w9YTmhKysicWst/vaVRst6HODAikV71XKluNMyq84BnX+dhVvC7Gnq7AQirS/IZwsMHKjs5GMB/JORSuKuQ3KgQOgaH4MwuZF16hrfCXh+KCrmwdwtrL/5HFGZbAo65vG55PTm6WFaakNFx/Y22lQqtJlUrSpnJXGZRaCb7hQur/oM4nO9O9s+QW+n3Pfiqy9oiNfG/xNwjmMlrl8PisLrfBrGCLezYBVDErpcv9J/AWnCtZVcRntaTC5K62byA09q+EkO8tRe9yLjI9eJ/L+LPfCpel6BS3fjcxsS1c2HxvVXetcUjOAQnGfzZnHc6Jb6Kix0H8B8Jhfwhyew/Ny+adK8f4oRXn9wGzlBjbtQ2Xs32tolcjIx0Y5+nM7dVU92vnrvVxmjdMVtghsYSa+lnP50S73sBqEhT0XUsGQthbr+63sbwbRZWU9XOfWWP0Ttu9re721dqp/q1RWrix4k5EDyb1YucpI83ktAa78pSGcsa4UHx8NAo+4z6MfQl40LOOwMID9pM5CJ7N2jthC7qzY6gAMKD4ji2KJ+VZgIw8Nl85meb/fl3zgNLTKTZCJ7I84tCyBhvJM9V3x1lAMsPzCXXbFGp7MJRz8xnjVs0uts+sPS4d4wZYVws6en5hsIos2/8ghknGCGpxj5/xwgu9Jwr9iGMlpU7V+Dc4K6K2187PHzAuNBVpKkJnrqKFY4sYjssZGc1d2UJnjqL0a5kQjr0pUWHTMasj4ajRZXe+3x0D5cxr5L+9srUZW2RmrQoLS0ttw/Wxbs5JaTuLSS6v4PwLjfbwyL1bu32vxHYGhaM7WMPiR/Ym7ed94p3MzhyJDdcfYs9LFKvfvjxB7b//TlCb+7Bg73/0x4WP1Dy5gN8c+rPhEe/RctWV9nDfsS428uhBZX0tUujcf5cHsVvjaZtxEza9V1uD/s9/66YNzSzRaTit5MGXPi9z0WkadqVaLmbjO1hv9+4iIhILSgxtwqeTab1jjHV3j1GRJq1oct8Lhj1eXhuzSgijUcH5uxRtVwuL7WySKOzNu19Aq/4lukPRNlD4gfeKczi8Km/qpVFGsQPP/7A6+8vp2s7B7E9xtrD4gc+fmcK3575SyNoZZGmoLG3sigxl0Znbdr7XNVhnX1Y/IwSc2kIP/z4A3veW8K9n17orbCkoSgxl4agxFyJuTSwtWnvc+WNfyUqpJ09JH6g5NxJPv3qrBJzaRDuxPxnP3xIlxvD7WHxA9+W7KXs69NKzKVBKDFXYi4NTHdl8W+6K4s0JN2Vxf81nruySFPQ2BNzXfwpIiIiIuIHlJiLiIiIiPgBJeYizVVBMj0DJ5BlH68giwmBPUkusI+LiIhIfVJiLtIcFSTTMyIRl328giwmBA5nq31YRERE6p0Sc5HmJmMCgRFrmbRtGQ6fgK0yXpBMz8DhsC2NkT7zRERE5FJQYi7S3MSup7T0A2b5ZuVANOtLP2BWqPk0dBYflJayPtY2TURERC6JBk3M900PIDzI/ohiTRGcTokifFASpy3zT6dEER4UwJxdlsEGUcSaQQHEpBTZA76KkogJGsc++7iI1MJ+5gX1INL+GLSO08DplHjPz26nU+KJDOrBvGrfEz5i3aCa5lRiV6Jnf/un9yAu5SP7jIZlOR5prGq4PiNjAoGBgQROtl/pkcWEwEACa3UNSBNSvJGIDn1pYX/MeBuAnTO8P7vtnNGXFh0SWFnsM9zMnGHl4L6MecM+Lo1RgybmACSkk1dSZnlkMznYPslIygcv7sXqkjJWDrVHRaSpiN1wlJwSy2PvRDraJ5lJ+b2LnTxfcpTlek8Qv1fL6zMiHTg2bfFNwDO2sDXSYWs1ay6CWfHOQcrPWB7P9LdPAjMpjz06i8Izqczpao+KNE4Nn5jXxq5xZlL+EgPdY9VUp/dNDyAmJYk57ir89ExPtd1dkbfOdVfr7RVxT2zQInJ8IkYF3b1dXSv4+6YHEDN9HDHu4/P5ZCDTe9zmsYP39a7xeR2Wue55nrnuNSr/HYk0arsSzaR8GQPModMp8URO32+baHFiHXFmFd5T/S5aR1xQIp6tLqYqba41b7q32u+p0tvWtR6rUY1f5/20YPp+zycBkUHxrLN9UPcXz/qW4zbXce/XW903Pi2IG1SbTxbkkqnm+ozipJ62CvkkJo3ZypYM70jWq1sZOXaSZY7YFaUkGEn5nrG4a3tFKQkVKupWRnXdeBjVZaPSHDE4ocJYZfM8Fek3FtKiw0J2WtaNSDnj3k3l3lhIi8ELGeNZ21vl993eui/z5xTvJwkRKWcsr8N7DADk+87z8PkkwrLNGwtpMTjBiA3eSA09AtJA/C8x3zWO8PFHmH/AkpQDBM8m05qo2xQsPkx8SRl5B5YTmhrH4Nzl5JWUsTohl6VJRhJ7OiWKKamjWG3OY3GYJ8n2ia3tzTHL7Sr2TQ9jaZRZ6d8wivTxvsl+bRSkwnz38bnm8fQuzIQ/jmOL8o21DywnNHWeZe0tpLLD+zrunEfkAfu8TObcOY+IDcYnEKsTtjDF1hIk0qjtSiRyfC4PH/Am5QAdp+4g51nriK+Ml+H5kqPkbIilcPHvKiS89SODXOfr5JQc5fkEyHiydkl+4eJc/qPkKDkH5hKSOpV7c+eaaxTyhyRL+u1awaue9TP4nZncn06J53fZc3ndXIPF9/ok4YVRxnr6ZOEyqeb6jK6zP6B0TbTPmKOHg62vupP1LLZsGsmo4T5TxKIoJYGQJd3JsCTlAMFTU6usrhelJBDLKqMC/84sDk/wJqi5PWZRfuYgm+6BnTPimdvDnLc+ms0TElhZ3IERDwZzON9Idovyj+N0QG4xwBlyjwbz62EdrLurnCsLFhyk/MwOVjiKmJtU9UmE1eZXIMM8ntwl8cx17DDXyGKuJQHfvMTFCvP1sWSmmfi/zZh+yfReb3z6kPFgFrHWJNwFv37nIOW236VcPg2fmKfGWfrLbdVn1zwGj99iGaiDhNFG0h7sJAIn82fHABDqdHqmFOTmErposTlvNvMTID3dSNorixky2ZEKcXHGegxdzHxHLjn57ngteY7vfhI8n08GM3lvGZlTzT+HYCcR3i0AJwkxRizU6YSE5Ubbj3Xers2kM4p48x/ggbOXE+o6TFUtjSJVq6Ef9hLJGG/tMfetCuNawb3jLaXEOgh56B6jJWZoLJXkR/UkhAdibgNgQFwd9pIQa5xkBIfgJISHZxsnGCHOENvEWB6eaq4/ey4hqRns5yP+8nKh9/UFT+ThBMg94e2JD3G6r+CVxsAxfBKOIy6KMdtYxozCN3VvToqY28/SX26v5L4yk5AldT3LPsO2V4oYHWcm7V3HcuzMEoaZUafDnZK+zaZX8M67ZyorHEUcyofgsO7kvrKHIiDX1Z0VC+BQPlC8hxcZzohatdJEM+YeACPRry3ng4ONpDnMgZNoVkztAHTA2cM2b+FU4zV1HcuKB4t4cecZeCOTzZ79wrDZs3C6XOR6tuqOs1bHLg2l4RNzW4+5b/+4k/kHytizCJbeWbeWjFBnTd14RRRk+454k/aKMbv08e6TiTCWuuDYibq9MVR5fLvGWU5U4kj3CfYitFZ/u1uY4l7jznkUcISCuh2eNEehs/igdL0lAbDdlaXG8frh22PuWxWHEB4+cJTXF8Ef7rQl7TVwdjMS2kvLSUit/kZ91Tpxdjixp+puhYvv9ZzQ/C4VCnO9Z1QN89ql3oTexyTWsr3AaGNx9Kji34tmwdZjXqGSG01GZZXfahVxqJovbegd5lvt3jzBfWIQz1wXRqX8nhhGu1zk8jabjjpwhjk4nP425LvI7RFcu2qzw4G3VFh79uOrStXzsoh1n+j0SyaX42a1/8KPSS6dhk/Mq+OYxNBg6Dg122jJsPZRX7RgQqN8Rwpy3eeMFWO+jBMG6wmFp8p9UTKZM34LcWYbSl5JOnH2KbXhWM6eWlxQK9LoOEbwy2CjbcXaylFfTp/w1o0upcLcQvtQ7bhy8WyZb/m5wgnN0WrbesTfdeW+sbA2LZktmxxMGq4SZpUejGEYMOyZHawgmdiaersBCKZPrc91Kl58emxqB6A/Yx48Tu4bRRzuEUxw12B6Hy1iZXqWt8JeL6o/iaiOu9XGaK+xBByzKLReTKuLZf2afyXmFgOfTScuNa7CBZoXI9TppGDxIqMSX5TEUkuLysC4URVihhjiLX3q7gst63oBaG2cTplnq5jXwtDRxHl61t23mKzbpw0ijcGAZ1OITZ1aD7cxzODPuwCzJeSScW3jL0UA+/mz5/2krtzHCvvTM8wWmNv45UMhln5247aTF/97kcup6/BJsCCRrZGTuK+WH6g0bx2Ys2YWLImvxW0CjbaPzelmT3fxRiIqvcVif8Y8aOn9Ni+adK/vdMCLT6WBI9iY2yONF49620QuhrtNxmg9uTCeNYr38KLL7Hu/J4bRrmQWmq+hKCWh4kWj4lf8NjGHGFZuGEXB4jAjOa/mriy15anEmy0fLMr3ttIMfckSO0zCIu+HOwOfzWd+ttkbb9/uosTw+0VOT5vMFJZfQP96DCsPLOeYucbgxVS8cFakSRjA8g2xFC6+l7iUj2q+K0tlgify/KIQs6/9d/BQHfrC62LoMuNCzjt7EBmUQcSiqhpSauCYS0S62a6SPZfXzap4x6k7eD5qBfcG9SAyaCoZCSmkm73o4t8q3pXFFOqgF+AYex8qZtZS17FkLAxm8wQjea7urizDntnBiqMzPe0cvddXXjW2z2PhDjaZiXfwsOHGxZLmhZ5OB+T2MCr4F2PYM6sY7UompENfWqQ7WFHr6r6v0Q9itKz4vL7+bHpnFofN9pyQJbDiHW9/vfifFqWlpeX2wbp4N6eE1L2FRPd3EN7lZntYpN6t3f43AlvDgrF97CHxA3vztvNe8W4GR47khqtvsYdF6tUPP/7A9r8/R+jNPXiw93/aw+IHSt58gG9O/Znw6Ldo2eoqe1ikXp0/l0fxW6NpGzGTdn2X28N+z48r5o1H5d9oWsldZ0SkETHuCe69Y4z1UfF+4yLSjL2x0HsnGfujiiq+SGWUmNeDgc/6Xhha9V1nRKTxuI2Je20XWHoeO5ioC6xFxO2eJb7fVmp9VHFvdZHKKDEXEREREfEDSsxFRERERPyAEnMRERERET+gxFxERERExA8oMRcRERER8QNKzEVERERE/IAScxERERERP6DEXERERETEDygxFxERERHxA0rMRURERET8gJ8k5pnMCYpiTRFAEWsGBTBnl33OpWLdN5xOiSJ8eqZ9kmHXOMIHJXEa2Dc9gJgUc6Na892XiIiIiIibnyTmjcTQl8jbO5uO9nERERERkYvUwIm5UQ0PDzIeRlW8iDWD4kgnl6V3WqrJJ5KIMef5VKaLvOPhQePY5x7fNY7wQVFGzKxq+8pkjme7ALMqbtv3S+MYvDgXUuOMuH1NS8Xc8Jp3TU+V3V7xd1fJK3+d+6Z7j8nnde4a5z1W6+sUaSqK1hEXlMi86T2IDDIe8yyflJ1OifeMRwbFs87889g/vQdxKeuY545N32+Z650HwK5E7xqD1lXyviAifuONhbQYvJAxg/vSokNfWnRIYGWxN1yUkmCO+8Z2zuhLRMpGxrhjM962zPVdY+cM9/Z9iUg54w2I+IkGTcz3TQ9jKcvZU1JG3oZRpI+PYk1RMJP3phOHk/kHspkcbMxNfxlWm/MKFsebiWwmc+6cR8SGMvJKylidsIUp1kTZBQkHyiqpahtJ8bFF+eSVlJF3YDmhqfMq7nvcS+xZ5ISEdPKejalhTShYvJbIA2XklaQTlxpXQ/tNxdd5OiWKKdnm7+PAclgcZq6RyZzxR5h/wHidexYdYWmd22ZEGoMMcp2vk1NylOcTIONJM3nelci9i508X3LUjBXyh6T9nq0KF+fyHyVHyTkwl5DUqdybO7fivKJ1xI3P5eEDR8kpeZ2HWcG9071riIgfcmXBgoOUn9nBCkcRc5PeNsbfWEjIku5knDlI+ZmDZDxoiQG5S1yMOXOQ8ndm4XxlJiGuWRXmFaUkEHt0FoXmPJbEM+YNzxIifqEBE/MiCrIh7hEzwR26mPmOXFIzK084Qx+635w3mjj34K7NpDOK+KHG04GzlxPqOkyBZ6tehJqJva9gJu8tI3OqGQx2EmGfUqWq1gQSlpsnEjH8fpGT9PQqetMrVcSul3O9rzN4NvMT4NiJir+PjlOzvccu0qSE8EDMbQAMiIv1Dg9dRk7JMga4ZzlDvDGAhFgjFhyCkxAenm3MtM47nbmNQscIfhkMcBsTH4mF7EJVzUX8WjRj7gHowIgHLf/u3bOE8jNLGGY+dTps/yY+GGPEugbTm2BWzO5vm3eGba8U4XxwMMEAXcey4kE4nK+qufiXBkzMXeS4rM+DCY2yPvcV0a2qRHQLU9wtHnfOo4AjFLhzWUdvQm2zPXxaQ+JIt8erUs2aoU6HfajOChaHeY5rSioU5LqAGFYemETqnebxVtqaI9IUOAmp9E/9I9YN8ra43Lu40Cca4qzqr9LGtYJ73a0s4zPAlYvvSiLiVxwOnPYxAM6w0tPi0peQJb5FrAqJehVyl8R71oh9BXJdFYthIpdTAybmDiJ98lijgl5nDrP1w/Pwtr9ULZM547cQZ7bA5JWke6vwF8FIot0/5/rEPIpyOWYfs/Aek/lwt9AEzybTHNvz0FoGV3WnGJEm6HTK7/gDc3ndbGV5fZGtYl5bCSnkmGsYD28VXkQaj6KUmczFbEM5c5DChTX+w1+p0euN7T2PZ4zKuoi/aMDE3KiQpz9pVn93LWKpy0lCTB3+uIaOJs41j6fNXu7TKVEXdGHk6ZR5ta+YVyd1s7nvTHakQlycmVSDp63ldOZaS6uNVTBDH3J6fx/mxakxKUXmBa6+r6s+qvMijdN+nrFVzGujY8wIQlJX+Fw0qgtARZqCt1loq5jXzGiN2fzURowt32aMLgAVP9SAiTkMfDaf+cxjcFAA4eO3ELfBXe12EOmw3ZWlUjGsPLCcY+ONFo/Bi2H+gZcYaJ9WgdkDbm43heXMd+SSk0+FfXfs1st7V5YahC7qzQ6zNebYonxWDsXoZ1+7nNDUOHNfkyzVedu+pmazOsr8fQTFkZ6QbvSSB89m9aIjnpadwS9PYrXZY+5z/3SfBF73SJemo+PUucR62lAy+I8NF9AfHjyR9A1O/nCn0cryu9RYnt87scJF3CLi/4KnzmK0K5mQDn1p0SGTMeuj4WiRmWTXTvDUVDJ6uNeYyeYHV3Fsagf7NJHLqkVpaWm5fbAu3s0pIXVvIdH9HYR3udkeFql3a7f/jcDWsGBsH3tI/MDevO28V7ybwZEjueHqW+xhkXr1w48/sP3vzxF6cw8e7P2f9rD4gZI3H+CbU38mPPotWra6yh4WqVfnz+VR/NZo2kbMpF3f5faw32vQirmIiIiIiFROibmIiIiIiB9QYi4iIiIi4geUmIuIiIiI+AEl5iIiIiIifkCJuYiIiIiIH1BiLiIiIiLiB5SYi4iIiIj4ASXmIiIiIiJ+QIm5iIiIiIgfUGIuIiIiIuIHlJiLiIiIiPgBJeYi0ojtZ15QPOuKzGfTexCX8pF9kogIO2f0JSLlDHCGlYP7MuYN+wyRy0+JuYiIiDR5w545yLGpHezDIn5FibmIXB5F64gLSmRdSjyRQT2IDIpnXdF+5gX1MJ5P32+Z/BHrBpnjQT2Yt8s9NpUMCvnDnfGsWhLP71KhcPG93qr5rkTPNpGD1nHasqKI+KE3FtKiQ1/jMXgj5odhxvjgjaycYcY6LGRn8UYizLlGJdxQlJLgXaNDAiuLjXFvxVzEfykxF5HLKINXeZ6ckqM8n1DIH+5cQcSBo+QcmEtI6gpLi8q9/IG5vF5ylJwNsWSMj2dd0W1M3JtCLCE8fGAHMxfu4PkECFn0OulTbzMS//EZxG44Sk7J6zzMCu71SfZFxK8UbyRiwnFWvHOQ8jM7WEEyITPe9sZdyRyKM2OOLGL7uVhx5iDl66PJXZLCTowEPmRJdzLOHKT8zEEyHixibpJlDRE/p8RcRC6jEB6Iuc34yRkCCXOZGAwEh+D0zPmIwmyIfWQiHQGGzuBhRyGvZtbQS56fS6FjLjOGAtzGxEdiITUDpeYi/qloZxq5juGM6ArQgTkLouFokbdqTjRj7jFizh7gXDiVYQBhDu/7xT1LKD+zxBgHnI5gd0SkUVBiLiKXkZOQGv/dLOCYy/r8NkKirM8rd/pEru9AmJMQ3xER8TeuZELcbSgTssDlwvOX7LAk4FUyLux0t7KELPGm9SKNgRJzEfFzoUQ4rM+NCnpNOnaz/ROen0uh74iI+JsHV1FutqEYD2/1uzaKUmYyl1kUmtsXLqzxzF/Er7QoLS0ttw/Wxbs5JaTuLSS6v4Nrrw60h0Xq3etvHyewNSwY28ceEj+wN2877xXvZqDzAXvI14evMn5IPlNPzOcO4OzqKYw8PoV9K34OvM8T3VYTvns1v+oC7869l8Rjv2Hrzgdov2cpA39TwNTdq/lVl4rzUrqvZ8OUIHP9PxL2x9d5dHAJfxo2gZSIJ8z1pSnZl/sqoTf34MHe/2kPiR8oefMBvjn1Z8Kj36Jlq6vsYa/ijUT0S+PX76Qyp6txsWbs0VkU7hlL8BsLafGUw/jZvJBzrmOHcZeV4o1E9HOx4swSnCkJhLwy3Jz3NmM6zGTzg6sof6a/ZRtYOTieQwsOsuke+0FIY3f+XB7Fb42mbcRM2vVdbg/7vXpLzEUa0k1tr1Ri7qfciXmNzv6DZ3/zKfemDyYc+Pe2l3m6+A4Wz+4MnOSVuHdp/8eH6N8e4Eve/q8tvP6hselPHv0ND/7cOn499/7xISIOvMzTaz/n5kmjmD7iOnh/D4ueOGFs1OUOfv+/P+EGyyH4k2s+akObklK+bXsVn3f73B6WGigx91+1Tswx774yIct8Ek2Gu2Jey8R8mDsZd2+/HmLN7XKVmDcLSsxzSvji6+/sw1KDb86X8dfsEjrdcg3OLv6aKtSPFi1aUF5u/Gdm/dk+B6gQs893P2/RogVDf9bJZ674h7+e2Gkfklr45p2TtH79TUp79uHaEbVoopcK7upWl6YHaSh1SsxFLlKzT8zlwnz6xXme2niIfj2CeGCgLkkTae5cf97D2S3/l2v6RfPzaZPsYZFGS4m5NKTGnpjr4k8RERERET+gxFxExA+0aNkCWrQ0HiIi0izpXwARET9wdaiTws4PctVP+tlDIiLSTCgxFxERERHxA0rMRURERET8gBJzERERERE/oMRcRMQPlJ49za2fvMN3H7rsIRERaSaUmIuI+IGyr85xzTen+eHzT+0hERFpJpSYi4iIiIj4ASXmIiIiIiJ+QIm5iIgfCLi2DV9f3YlWbW+yh0TkjYW0GLyRIvt4k3KGlYP7MuYN+7g0J0rMRUT8QGD7jvzz5ju5oqvDHhIRkWZCibmIiIhcfmZVfOWMvrTo0JcWHRay0zZlWxWxnZ7xvkSknDFHzQr0jIWeWIsZb3s3Kt5IhHu8kn1VZueMvkTMWOjdzlPFt1e732ZMhwRWFrv3s5CVKQnmvhJYWfw2Yyo7JoB873F5X0s1x/vGQloMTjBiTf5ThaZPibmIiIj4B1cyLzp2UH7mIBkPZhFrTVpdyRyKO0j5mR2scHhjRSkJxL4STcaZg5S/MwuWxPu0g2w+6qDwzEHK10fDK8lGsszbjOmXTO/1B737qmVSm/sKrDD35XQls7BWrSdZvMgqc19FzO2XTJ93zDU8x2TYvMTlWZ8lM2t3vC749TsHKd8zlmDvUtIIKTEXERERPxHNiqkdABg2exbOVzItlexoxtwD0IERD3rTz1xXEc6FUxkG0HUsKx6EzenehN754GAjWb0nhtHuwTcy2exZz9yXy0WuZ6tqPBhj7mswv65151kwvx5mvC6nIxgenMWcrkDXYHrbZvq+liJe3HmmFsfbHWdXzxNpxJSYi4j4gW8Kcgn5MJVv//GOPSTSfDgcOO1jbpXGzpB71HfE6fCtGfcOMxLiirKIdbeG9Esml+PkWirXVbGvXzu1T5wv6Hgr/d1IY6TEXETED5T/WA6UQ/mP9pBI82GtAufXpoLdAWcP35FcV20aUgDHLKPFxfNINarY9aG4iMP2sVo6nO/tkfc56biUxyt+Q4m5iIiI+IksNpk92zvTs7xtI9VwOoLJXZJitLwUb2TuKzA6rr99mq97Yhht6Q8vSkmo9QWg1XG30BTtTKvFSUXlcl/ZY/SOF+/hRZfZAnOJjlf8jxJzERER8Q+OaHjKaNeIPTqLwmdqSLCB4KmpxsWQZosHC3ewyezFrlp/Nr0zi8MTjH2FLIEV7yyp8SSgah2Ys2YWzldmGsfOcG8/ex2NfhDPa+m93l0Vr+/jFX/VorS0tNw+KJfep1+c56mNh+jXI4gHBobYwyLSzBQddPH+SxmE//IOetdU7RNpRErefIBvTv2Z8Oi3aNnqKnvY642FtHjKQaHuLCIX4fy5PIrfGk3biJm067vcHvZ7qpiLiPiBgOuu56truhJwwy32kIg0lDcs9zy3P+z3Gxe5BJSYi4iIyOV3z5LLfx/ue5ZYLq60PWrRViNysZSYi4iIiIj4ASXmIiJ+4IdvvuLqb8/y45f/todERKSZUGIuIuIHzn90kqCP36K0MMceEhGRZkKJuYiIiIiIH1BiLiIiIiLiB5SYi4iIiIj4ASXmIiJ+4OqQ7hR3up8re9xhD4mISDOhxFxExA+0aNWKH1u2pkWrAHtIRESaCSXmIiIiIiJ+oEVpaWm5fVAuvU+/OM9TGw/Rr0cQDwwMsYdFpJk5dbyEXevf5ufDfkLUXWH2sEijVfLmA3xz6s/c7JhhD4lcEp+4nqFtxEza9V1uD/k9JeaXiRJzEbE68dZhcjal0mnQL+gzMsYeFmm03In5BfsY/uO/Yd5qGGCPNWHnv+nNt2fbcU2nIq64osAelhooMZc6UWIuIlauP+/h7Jb/yzX9ovn5tEn2sEij9c2ZXfahuvnwNW4fVMCSorncY481YR9m7aZkdzFdR/bm1p/2sYelFq7uMNQ+5PeUmF8mSsxFxEqJuQhQkEzPiERcAJHLOH5oFl0LkukZcZhlpeuJBoqTetJ9gcvcwMGyYx8wK9S2bW3Gq5IxgcBHexv7xtw+AdLM51mTAxm+yZjqeOo4H8zuam6YxYTA4Wx1rzMmjdI10eb+10KkC1fOSNLM11GT/C0rOf3n9wmb8iAdByXYw9JE6eJPERER8QNZTIhYy6RjpZSWlpLWK5HhScW+UzIm0H1BL9JKzTljXCT+TxZQTHJCIr22GeOl23rVMF6N2FGMzFnLdrN7pDhtLYy9j67mScHwI8s4XlpK6bFlsKA7EzIw9tNnOEeeOm7s59gyHJsSSfZ0oLjo9UQppbVMyqX5UmIuIuIHWl11Nd9eeTMtr21rD4k0Dxlb2Bo5ifvManb0mlJLNdoUu94nuXX0cPjG3WLXG9Vqu6rGfUQzaoyLwy6AYrZvhEnDu5o/u3CYSTqhs1g2Bo4cLwa6MuuQ5XhDHfTyWdNB7yoOtSoBba4hMKglra+5yh6SJkyJuYiIH7iyY1fO3no3gaFR9pBIs1B8/Ih9qBLFJPcJJDDQeHhbWroy61AajHDHJmDUxasar170AyPZ+moWFGxnLd6TBQDXgu6e/Q/fBK6j5jFkTPCMB1pbWgDohaO69plK3BDVlVuHBXBt8G32kDRhSsxFRETksuva3bfGXJnipOEkYraSlJZy/ClrGTqa9eZ46TYY3icZoxGmqvFqxI5i5KYtJFvaWNxGutti3I810UYbzoitllgaIy3biNSWEnMRERG5/By9cVh6u7MmBxI4ubr6dhaPeSrmWUwI7Gnp6QZ6Oeha5XhNohk1ZiuJC9xtLABduW+sg62PuhP7LCYEBtLT3gcPFCcl2irmIrWjxFxEREQuv9BZfLCtF4kRZpvIkWUct/WDd529jJE5iXQPDCQwcAujto2EIy6KiWa9ZdvAEZC2Jtqollc6XrPoB0aCpecdoOvsD0jr5d7/cLaOSTP7yqN5/CkHW82WmeEsY1mku09dpPZ0u8TLpC63S8yaHEhiD+stmUSkqcl7/S1OblpD27t+yc9+M8Ye9i+229eJNEWX+9/eglee4czr7xA68Vd06H+/PSxNlCrmIiJ+4Mfvv6fVD99Q/v139pCI1LOsyd4LSO2PCRnGBabDjywj7TIl5ZjvCWXflPPj92X2kDRhSswbje1McL9x+PTcGT1unjcVS8znjafaPj0RaVx870xh3EfZ+Jv39rsac9wxCpLp6XmvsN+Zwvo+YsYKkulpnZcxgcA+yRSTxYSIRFxsZbjP3MrX1vuQ+KPoNbYLOC2P9bHGrQ9L3V8wJNKAlJg3Eq4Fhxnl+dKC4TV/oUHGBO+XIJQeZ9kR6xcdiEhjljW5O4m90sy7TIxk6wjj4rboNceZtHG4+R7wGIm90lgfi/nFLd4vWUkbs9VyZwrjfQQzdvypIwyvNoGOZv2xZThwf4NhNWvrfUhEpE6UmDcWY0YZvZyh9zEp0j1Y0xcauHVl1qEavoJYRC6rwJtv5V839CSgfbA9ZJPFlk0w8gGzuzv2cctFZl2ZlTqJtQk96Wm9yC1jC1sZyahY42n0fy/DkXPY+Irygu2szfHGus7+oBZfwGJR3do+9D4kUhfXdA3i+p+34qqgm+whacKUmDcSVX67WVVfaBC7nuNj15pXjld+OycR8R8B17fjizbdaX1L7b5MxH33h8DA7iTmuL990Pw2wl4ueOpx24WZWxnufq+ISMTFEVwFgKuyJLquqlhb70MiF+zq29rRpkcrrrzpentImjAl5o1a9V9o0HX2B+b4cSZt7O7tNRWRRs7BsmO+fbGeT84yJjCcZd6WFrdI75eyGA+zeu3oTRWn/T6q/VbGqtbW+5CISJ0oMW9CrF9oUJzU03ahlYPetfnXV0T8XDSjxrhI/B/z79u88NJIeLOYMALS1swyW1rMXu/YUYzMSeQxMykuTurpvUgz1EEvtrLFGvP0n7vHi9m+sYq6ejVr631IRKRulJg3alV/oUHX2WksOzLc81H32rFp6u0U8WM/lp4n8Lt/U/7tV/ZQBdFrjnv/viMS4anjrI91X8Rp3ls8dBZpY9fSfXKW54LNI+Z7RfcFsOyY+x7k9lgv0g7NomvoLNI87y/DYazl8zgzmTfuymLf3ru23odELlzZV+f57l/l/HC+1B6SJkxfMHSZ1OULhkSk6XP9eQ9nt/xfrukXzc+nTbKHRaSZyd+yktN/fp+wKQ/ScVCCPSxNlCrmIiIiIiJ+QIm5iIiIiIgfUGIuIiIiIuIHlJiLiPiBq7uGcqrDMAIdP7WHRKQZuqF3N9o/0Jq24V3sIWnClJiLiPiBFq0D+b71tbQMvMoeEpFmKODqQFq3bUHLK1rbQ9KEKTEXEREREfEDSsxFRERERPyAEnMRET/w/WefcMMXRykrOWkPVa0gmZ7ub/CsRNZk40t/jG8FtciYYHzpj8+3coqIP/n65Md8caiM8x//yx66bLImB9IzyfheYLk0lJiLiPiB7/71CTd8fozv/1nLxLwgmZ4Ribjs4zaOSAdbX/VNwLNe3Yoj0uEzJiL+5ZtTn/DFkR/59uN/20PShCkxFxFpbDImEBixlknbluGbXmcxIbAnyQWWobGTGLlpi6WqnsWWTSOZNNYyR0QasWKS+wQyISmZnoHGp2Q9k4o9n5gF+nyqlsUEc471UzN7Jbw4qWc1lfHt3jV8PnWr3dpZky3bFXiP2fc4my8l5iIijU3sekpLP2BWhaJ3NOtLP2BWqHXMQe/IrWxxt7NkbGHrmFHcZ50iIo3e1o2QVlpK6baRuBZ0J7HHcUpLj7MsciuJScVmAj+cI08dp7S0lNJjy3BsSiS5AKIfGIlr43aM9LmY7Rth0vCu9l0A4FpwmFGe7YebrXK1X9t1BEY+EG0k8hGJ9NpWSmlpKWljtjK8T7I5r/lSYi4i4gdaXXEF37e+jpZXXm0PXSQH9411cOS48c9d1qtbzX8URcSftbwykNbXQ6vA2t0u0TH2ProCOHrjYCTLZncFuuLo5Z7RlVmHSvlgtplwhzrwhGJHMTLnsNEaV7CdtUziPp8TfIsxo4gGCL2PSZHuwWrWdvTGkbOW7QXm2jkjGRVrFgkwfwai/3sZDvcxNGNKzEVE/MCVXbpxqkMMgd372EMXrevwSbBxO8VksWWTg94VKu0i4m/a/bQb7UdcQZuw2n3BUK/ulVe4fbgv/A4MJDBwOFs9gWhGjTE+WStOWwvuJL8Sjh5VvIFUtXbofUyKdHHYZaztcif2AGxluHubiERcHMFlbcVrhpSYi4g0daH3MYm1bE/awtbIaiphItKEZTFhxFZGmq0jpaVpjLREox8YydZXk6ttY6ladWt35b6xxkXorqMu30/sIpdxvNS9TanRotfM35+UmIuINHlduW8sJC7Y6v24W0SateKkREvF3Gxn2ZRIYnVtLLVkX7vr8Ek4Ng1n+CZv64rRPpPIY+b1L8VJPXUBqBJzEZGmpJK7spi6du8FOC6gEiYiTUM0jz/lYOsIo3VkOMtYZraYuOOjxlh61eukhrXd/eg+bSzRrD+2jCPmNt0XwLJj6y3x5qlFaWlpuX1QLr1PvzjPUxsP0a9HEA8MDLGHRaSZyfvLOxRuWs9Nv/glfScn2MMi0swU7UjhzF/eInT0SILuGG4PXwJZTAhMpPcxtZNcTqqYi4j4gR/Pnyfwu8/58duv7CERaYbKvv6W7/71I2Xnv7OH6l9BMj0Dh3PkqTQl5ZeZEnMRERGR5ix0Fh+UWm53KJeNEnMRERERET+gxFxExA+0vqEdn7dxEHBLR3tIRJqhq2+7iTZRrbjq5hvsIWnClJiLiPiBK266lc9u+Amt2+ujZBGBa7reyvU/a8WVt7azh6QJU2IuIiIiIuIHlJiLiIiIiPgBJeYiIn7gx7LvaVX2NXxXag+JSDP0Q+n3/PB1OT9+X2YPSROmxFxExA98W5RPl48y+Db3b/aQiDRDnx3M46M/fc8Xx4vtIWnClJiLiIiIiPgBJeYiIiIiIn5AibmIiIiIiB9QYi4i4geu7NSVM7cO4YpuP7GHRKQZuv4nwdz6H625LkRfOtacKDEXEfEDra68mvNXtqPVNW3sIRFphlpfdzWBt7Qg4Oor7SFpwpSYi4iIiIj4ASXmIiIiIiJ+QIm5iIgf+P7zf9PmyxP88OlZe0hEmqFvSz7jy9wfKf3sC3tImjAl5iIifuC7T85y02eH+O6jAntIRJqhrwrO8u8DZXxz5hN7SJowJeYiIiIiIn5AibmIiIiIiB9QYi4i4gdaBLTih1ZX0KJVa3tIRJqhFgEBtAyElq2UqjUn+n9bRMQPXB3cnQ873seVPW63h0SkGbrp9u50HHMFbZ0h9pA0YUrMRURERET8gBJzERERERE/0KK0tLTcPlgX7+aU8NGn39iHpQbnv/uBQ3mfEHTj1YR00FdwX4gHBurjPX/0fmY2Zd/9YB+WGnz1+TecOn6WWzq3o1376+1hqYV+w3vZh8QPfHp8nX1IaqH0y5Oc/yKfq2/qSesrb7KHpQYtWl5Bu7DR9mG/Vy+JeereQvuwyCV1U9srWTC2j31Y/MD7mdlkv5VnH5YaBJb+ixs/P8q5a0P4+ppO9rDUoJOjPUPH97MPix8o+cfTfP3JIfuw1ODbD8v50vUDbXu3JPAWNTjU1fWdY5p3Yh7d38EtN15rD4vUu9d2HyWwNUrM/ZQ7Mb8rvi8BV7Syh6UK3xbm8slr/4/rB8bRpu8ge1iqsfeV95SY+zF3Yh760/9jD0k1Tr/5AfmvvE3Ub4dxU1RXe1iq8OMPZRQdWafEPLq/g/AuN9vDIvVu7fa/KTH3Y9bEvO1N19nDUoWv8o5yatNz3HrvA9zY75f2sFThh7IfydqwT4m5H3Mn5t37/Z6WLXU70Nr68I33cG15g94zHuKWXuH2sFTh/FcfN+rEXJ+NiIiIiIj4ASXmIiJ+IKDt9Vzfux9X3NLBHhKRZujaDjdzW/+eXHljW3tImjAl5iIifuDKWzvS/r5xXNstwh4SkWaoXWQIPX4dR5vOt9pD0oQpMRcRERER8QNKzEVERERE/IAScxERf1BeTnnZ95T/qC9nEhEo/7GcH74rg/KLunmeNDJKzEVE/MBX+Tm4npjBv9990x4SkWbo5O73+ctvl/LxB/n2kDRhSsxFRERERPyAEnMRERERET+gxFxERERExA8oMRcR8QNX3daZjiP/k2sdP7GHRKQZurlnGL3+60GuD77NHpImTIm5iIgfaHVNG65z9uKKG2+xh0SkGbr6lhu5tY+DK9peYw9JE6bEXERERETEDzSLxHzf9ADCgyp/zNlln32Rdo0jfHqmfbRyRUnEeI4lijVFltiucd7jHJTEaUuoTsx1YlKsi1fN/buq99+LSJO1mxmR7elieQxZc9I+6QK4152GbqAozdvbjGnTlxaWR8SqM/ZJTdAZVt7RlxZtFrLTHqpM4UYibL8n92NMLdOS2tj5m4prFq1K8P5/4j6OOzZSu8xDrJpFYl6d9PG2hPhi7BpH+Pgt9tFayiXHcqvSfekXuo6INJiTLzAkcixptuETK2+ny4LdttHqlX35BeeO/p3v/vWxOTKEZ3LO8mHOc9xtmyvSbBRuJKLNTDbbhnMfjafFb962jTYtX5d8Qds2t9Huyhb2UJ1t/lX9JefD/niQ8nMH2RRjPC9alUDIo5ZEKmQsx84dpPzdsQR7R6WWmlViHrehjLwS72N1AkAuqZmW/6CslepKKs2nU6J8q+7uarY1KU+NIzxoHPt8tqxZerr7ryaTHam2oJtPlT2gkup8JnM88cqPwfc11OOJiUizcpLVMx7nBNBtznt8mHPWeDw3wgjveJzVJ/GpfM9YYFbVF+zm1JoBPtX182cP8VHq/2P+//n/zAp5xYq5exvPw5b8+8YHmPsXaazOsHJ0MrmA84kdlJ8zEsLyP0Ub4a3JrCy0TM9cWHVV3R37zUazCm2pRFu2q6zqu9KsELdok2Dsz1qZ9jk5cFe4KzsGd9V/IStXJXjn2E4uiiyxuf/7AZ06/oxuN9QxMY+YRaH7d3XuIIVPGOnx4bxKfh8VjtNgPQ77cVor5takPPfReKNKXmnF3P678f0UwLPmKmvVv5afFDQxzSoxr0pEN/OcrpKKd8HiMG/yu2scgxfn+sRxzWNKLdtEquQYRZwDSN1sJNJFuRwDQhNGEWqdV5REzJ3zKLCOpcZZWl2KWDMojnRPcAtTbK/ndEqU7TXksvTOyhN4EanGyZ1szQfCHmPd5M7e8UHPsS4ehj+3nymWYdhG2g7jp+H3DrEGamfvNO5aafsGwB1jPYn9qTUDbPF8lsSoDUYascI9vHjMSDQzZnbwjscsIWMkjP5TKnNCzLHMhbT4VZZ3TlVV9a3JzD3mfpJF7B0JRFi2y310pm+yfyyZuVvdT4qYOzqBiF7GyQIAW2d6KtE7fxNvWdtQYT2ymGutLlu2J3OhT+X5n5mveX6uVzX9rmzHAcZx2pP32jvDyjvsv5ssYt0nOhabH7X8bski1v7/XzPQrBLz9PGWSnNQAFNSgYR0Vg7FSGqfNJJYb2U9nTiA1HlGVXnoSz4V97wNowAoyHUZMfM5CenklbzEQO+ua9Cb+IecwBEKiuB05loKcJIQ19tn1r4kIykPXZRvHkM+8x3GycHTu4Bdi1jqAhjFap9PBdyK2PVyrk/cOOYtLL3YkwuR5qYw26iWxw+jky1091NneWaQbRAY/pxRVa8sVls+1fmcs+ye3Bk4SdaOfGAE63wq99tYUi/97iKXwXGXUS0fNbhCS8SwP3pbKeAMKx83Es3Rf3JXilcxmkqq6kSTce4g5Udm4QQ4VkTvPx2k/NwOVkQAFHHouHV+MCuOWNY7VgRm9T5jpDHDXYl2t3i4H0bcvp73GH23974G96cDTz9c+yzCx7FkQizVbiPJDubXcR3q9Lvy+ZTi3EGOWU+OTMEzUz0VeecTOypvX8lMMZJySyXf2KaIuUttiffIVb6fivyjqNn1qTerxLxSqXFGu0rRa6S6AMdyfj/UHYzh94ucFfq/Pe0kF9xPXlFot15mW02mmTz3IjTMOsPd3jKK+VPd/9kHM/kR42Tg2IkiTp84AkDoosWek4KBcebJAgAuclwYlXT3CYr5GgpyXZZ5IlJbJ/JtVewqjeD+i0jIGTSC4e7+dbNdZcZedzCf7HyAbUx0t7JM2wZ1Oj4R/5SbU0NqZqmsL/Ek6/1ZYiZ/PonxyBiGAYQEY5S+ohkTA9ABZ2VfIRAxnBEhAMH0iTD+10hwwRlZIQUFSxtIrKfSbuXeHwy730w+wTjOY0Z8hTsBbueTBFyEYFYcMT9dqM3vKiaG0e4qupncX0x/+s7XzBOBx7xJe/DMWcbJgC3xHn1/f+MH8xiao2aVmNt7zD0V75df43Swkwj7Bnbu/vMkJ5mW7evF0NHEAQUvzzNOEBJG2yruDiIdPgP1Kzv3wu/8ItIchUTRDSA3n1O20JsL6n5nlmvDfuCFV9PYlldVP6l5MWjmY8Z+gbRpFfvMK6jk+EQahe4Oo6pdSdV0528sfdGeJPvycvdJLwxP9amIX6guv4zgaG4a75/90R6qnq3HvPycpeWnVr+r/myyfqpgXjxaoS2olqo6gZHKNavEvHpm4utuCwEgk6cX5wJOIsO8d0qJizNOM90V6vrh3n+u0a7itGfhwYRGYWs78bbfRHQLpmO3XgAULF5k9ox74wZ3cm9pZXE/9s6mo2WmiNSg8zBGhgH5jzPRmoTvncbEHUZl21vRrpqnor3vNbaXl1Nun2DX+bfszjnLhzkbGQ6wYxtvEkZUGL6tLO7H9t9WaLURaRRCBvPrCKM1I9Z2IWfsVqOia1RyzWr2sWQWeiq7b7PQbOHo09276aXzNpu2YqmInyH3H/Y51XFX5LOY636tWc8zN6cW7wl1UofflfvuKp5Wl8wLuhgzONxYdPPj3otBi1YlG3fa+UlwxdaXZq5ZJeb2HnN3G0foQ/fT0dIW4p1nXkiZsJzJlv9y3PEKF4K6pcZdwN1Oghn6kPvc1ElCTMX/VAfOXk6o+4LUoADCg8KMnnJ3+83QxUbPuadVxYx7uPdhaWUxH7pvuUhddWbKLOMOLNb2EncLCfEbq+0l7xQSZfywY6zvdlWocEcW920a40dwN52Jjg/zbWWp0O4i0th0YM5jRruHta3Cc+HiyFVmn7l33uZfuXurzVssjpzlrRY3iCxi2/SlRRv7xY41qeS12i7QrB81/64q3JHFEzfbgKpgHHcld1KJmWr071t639197yvmm60r4tGsEvPKhC7KJ9Pds229gNMSz3vWqJAPfNa8GBQAJ/MPmBdfuu+m4kmML0zHmEnGXVgckxhaMS+H4NlkHjCSc4+EdEu1O5jJe23HuMj39XScms2eRe4TAEPoonzzAlgRqZNBz3kr1xbd5rzHh0/VcOcV8+4tbt3mbGRhNS2lnSbv569zbBPCHuOv5n4qi3eb8161Jwcifi9mibdia+F8Ygflf7QkdTFLvBcMmirMuaT6s8m6/4hZFJqtIJtfq2ULSMwSz4WUYCTKxgWp9ayG35X1gk6PiFkUVvG79PSLV6kDc951X1zrFk2GtcVGPFqUlpZe1Kck7+aUkLq3kOj+DsK73GwPi9S7tdv/RmBrWDC2jz0kfuD9zGyy38rjrvi+tL3pOntYqlD6z9P86+03aBv1c64Ji7SHpQo/lP1I1oZ9dHK0Z+j4fvaw+IGSfzzN158conu/39OyZWt7WKrw6dECzh44Speht9OmS5A9LFU4/9XHFB1Zx/WdY2gXVv0pgz9q9hVzERF/8P0Xn/PFB+9T+slZe0hEmqGvz37KmQPZnP/3OXtImjAl5pdMEWsG2XrafR517UEXERGRZsn6baOVPXy+ZVMaMyXml0wwk/fa7nzi88j2uaBUREREpFKeO6RU8ajsi32kUVJiLiLiBwKuvY5rw6NofcNN9pCINENXtruem38SRmDba+0hacKUmIuI+IErO3Sh05ipXOc0vo9ARJq3W/t0p8+sX9E22PwmUGkWlJiLiIiIiPgBJeYiIiIiIn6gXu5j/sreQq695koCr2hlD4vUu8+++JYbr7tC9zH3U+77mF/T9mpattJ7glxq5Xz52dd0cgTpPuZ+quQfT/P1p4e48uqboUULe1ikXpX/UEbpt5812vuY11tiHhDQilYtVYCXS6/0uzLatQ1UYu6n3Il569YBtGipf4RrK/Cbs9x05i2+uKkXX10fbg9LNb4r/V5fMOTH3F8w1CrgKntIqvHlse/47L3z3PLLq7mqU4A9bPEVa37zKscmT2DFHfbYxapm7TM5DJv4GYm7fsFAW8ijNnPqWXl5OT/+cL55J+b65k9pSPrmT/+mb/68MF/lHeXUpue49d4HuLHfL+1hqYK++dP/6Zs/L8yHb7yHa8sb9J7xELf0qu5k/Qwr74jn0GMH2RRjj12si1y7cCMRvVysOLeEYfbYJaJv/hQRERGRyyvP+yVEEavOeMczF/p8GdGYTHfgDCvv8I77bGNX2dqFG4los5Cdnp/dayWwshDgbcb0SiaXLGIrnWeOYR7jHQlG7I6NrP2N7/EUrUqo/viaECXmIiIiIo3c5i2Qce4g5X+KJvfRmUZyXLiRiF8dZ8UR44uICp8IZvPjxreEFq2aydyfrDK/pGgVvR9N8SbKNpWu7XGGlaOT6f0n88uO/tSduUvfBvqz6cgsnESTcW4Jw8xEnSd2UH7uIBkjs4i1fmPpMfj1EePLkibdH03ulj1m7AzbtsCv45rHbSOVmIuI+IHAWzvQPn4MV4c67CERaYbaOYOJGD+M6zrdag9VyjlqsPHtnzExeBo4QsZy7Fwqc0KMp8Hh3b0b+OjPpmraTSpduyoxSyj/Y3/7KBQWcZhoVsw0Euxh82fhPJbGNk+S3x2neZzExDD6mItcgMI9vMhwRrhjTZwScxERP9C67Y1c/9O7uPLWjvaQiDRD13a8hU6D+nBVu7b2UKV6h1deUd75G2+7SotfZXnGg2emksHMSlpcKqpqbUMH5ry7Cn5VSYuK1XEz0XYLCaa39XmEA6fnSX/GjMxiUyYUpaeB+8SgGVBiLiIiItIUZS4kdmu00YZitqJYDfujOX5uFfzK3Rt+IfqzybMPfFtU3LpbE293Bb1qw+6PZvNrG5tVGwtKzEVERESagzOsfNxbMd9pu8DSp5WkTt5mjOeCT9NPgitWuEOC6U0Wc8197lyaTG5ENS0qMTGM3prM3GbUxoIScxER/1D2zdd8U5zH91/82x4SkWbo/Gdf8pnrQ77/6lt7qPZiprIiIovYNn1p0WYmPDYLp9m7PeyPq+j9aLzZfjIT/lR1j3n1+rPpT92Z28vdLgMZ7h5zMxk37spiXAyKuc/YrdFkvDu2YgLv0Z8xIy397c2E7mMujY7uY+7fdB/zC6P7mF8Y3cfc/+k+5hem9vcxb6reZkybZPoc8V68Whu6j7mIiIiISH0p3EhEm5kcfmJVnZLypkCJuYiIiIj4j5CxHDt3kGPmrRWbEyXmIiIiIiJ+oEET833TAwgPsj/Gsc8an+57I01jmyjWVLjvziW2a5zPsVVl3/QAYlIa+uBEmoLdzIhsTxf7Y8Fuz4w3F/g+94xFDmD1SZ/h+nfyBYZETuNN+/hFO8nq+9ozY6/v6DUhDsL6teTO3227BPsUaQR8vq7d+/DeOeRtxlS437Yx1qKy2/PVUsW7k1TC+vXzDaTjwN4MSprFTZHNrJejmWvQxByAhHTySso8jz2LjjDFloy77ZsewJTs5ewpyWZyc7okV6QZGf7cWT7McT/eY2Hu2ApJq9ubC9ozMfcx/pqznymd7dF61vm37M55jrvt4xetM1O2n+WZQb6jLQICCAiE82UtfAMizUqw5+vjvV8Vb/8KeLe3GdNmJoef2EF5tXf3aJxaXXEFgddfS8vWAfaQNGENn5jbdOzWC7JzOW0bP50SZSTle2fj/h680ylRFSrqhiLWDApgTkoSMWYlPialyFKht1a+jbnuiv2cXdZlvNvPSbeM466gm9sNSqpwvNUqSiImaBxzLJ8YWPd7OiXK8gmC99MBoxqfxBx3bHqmZa7tU4SLOT4Rv9GZbk7IKaxYDj+1ZoCRlG//LZ3MsTcXtGfImopzDdaKvFn5PvkCQyIHMOQ+95i9er2bGe5qvLVifvIFhnjWslXr907zVvvve4FTllDlbPu0rD3jddtUkWYvmD4RRRw6bh8/w8o7jKTc24dcyf20LYpWJVgq8ZXNO8PKO/oyZpW3cm+vpOd61vDdvua1RWrnsifm+9K3QJTTk3xjJqqDF/ditSUpB+g4NZu8Z2MsI77SX4bVJWXkbRhFweIwljrzySvJZ75jC0vNdpN908NYynL2mPPSx7sT3Ezm3DkPFuWTV1JGPFu8CxclETP+CPMPlBnrMY/BlZ4gVGcLx5zG2qsTIP1JM3neNc54reYnCKsTclma5F27YPFh4kvKyDuwnNDUOAbnLq84r16OT8Qf7Oa1HRAZ4lsOP7VmAHetjGKdJSkHuPups+yeXFnp/CSr7xsLZjX+r3OymehpicknctZZPqx1Nfwkq2c8TqS7sv9cFEueN9c6+QJDpmWzMNOs9vM4d9lab6q3mxkxj8Oc9/gw5yz3s80+QaR5K9zDi8eC6dPdOniGlXfEM/cnq2wXB/Zn07kqbq2XuZCQR7t7vgEzY2QRc5e+bZ8FwOZHXaw4d5DyI7PAp1qfxYus8m4/2myfqcPaIjVp+MQ8Nc5SHTZbVazJdmocgxfnWreotdCH7jcS+bDehDKK+VODgWBCo9wziijIhrhHzIR/6GLmO3JJzSyColyOebaBgbOXE2pudTpzLQWOSQwNBghm8iOjKq3yV89JQoy5dtwo7/DQl8greYmB5tNQp88X1kLCaCMW7CQCJ/NnG78r67z6OT6RyyNtmrXHfCw5c97zbfPYMZa7VuZbBmrh5E625o/gfnOdTpP38+FTQ8xgGFGV/cNdW4Oe86x16i+bORE2mujOGC0qs0ZAbn4tquamk/nkMIKFkzvz3aclRPT5P8TcfFFfLSHSyBV5v6imTV9a9Eqm9598k+3Nv4pn7jHrNrUQs4Tyc94v0HFGVt344nxiqjEvZCwrRhbxYrq7ah7s+Wr4Yfdbvtq+DmvXxb/zTnL8T2/w9ZlP7CFpwho+Mbf1mOfZquIwitUlZaxO2MKUOrZkRHSr6Y/BRY7L+tyStOcfpsAasnPNY7D7hGL8FnDVML+CXoRWeni+rTX2k5JQp8PneZUu+vhELg/fHvPKKuAjWJdzlnXx25hYq1YRoDCbE/Yxjyi62XdRrc5M2b4RPCcQtgtC8x/nLveJxbRtkF/dvm0sx/ndZ5/y2dFP6XyDbY5Is2LvMT/IJvsH5SNXUX5uFaO3zqzQalI1o03FnfCHPFr1paK9w6u6RV9VX1lf+7Xr4tyHZyl+/T2+/ljfBtycNHxiXhOzQjzwWaMlY0q93vHEQaRPnmtU0MFdZa+G/YTCUuW+GKdT4r2tNSVl7Flkq5jX1iU6PpHLLn4EdwN3P2W0ikyssqfcIiSKbvax2jiZT459DIAhPOM+eXgO3xOE+I0+Jxa1b5G5iOMUacZG39/faFup0GpStaJVM5nLLArNZL/wiUorZQAcznMn+2fI/YctWIm6rC1SE/9LzD2Cmbx2OSwO871A86IYFXJvf/cilrrMFpPg+0mw9qInzfNUnDvGTCI0dZ7PRZmX5gLLTJ6+gDaehjs+kcupM1OeeQxW3l7lXVs8OocRyTZeM+edWjOg2gsz0143+sJP/WVzJdVuywWhbs4wOgGdfjmabjse98TeXFDbC0BNnYcxMmwbSywnG5/6TBCRKoWMJeMJmNurrrcxfJuF1VS1c7fsMXrHzf52d/tK7VS/tkhN/DgxB4Jns3qRk/Txxl1Mqr4rS+25K/GDzZaPuA3uWzF6TwTCgwJY6lxOnHuj4NlkbujF0jvNvvjUURUuTL1QHacuJ87ThrKZ+A0X0B9+CY9PxK90/i3r5oSRNs24q0nVd2UZwjOZj5Fjtp9UduGowUj2u+0YS5fI9kxkNMPtUxjCM89FsSTG3a4C69z96p1/y25LbOKOEVXspyrek42E//MrPrziKoLP2+eISFWCZ65iRUQWsW0WsrOau7IEz5zF6GPJhLTpS4s2mYz5UzT8o6jSe5+P/onLmFdJf3tl6rJ2XVzR5lraBren9dVX2kPShLUoLS29qCuN3s0pIXVvIdH9HYR3udkeFql3a7f/jcDWsGBsH3tI/MD7mdlkv5XHXfF9aXvTdfawSL36oexHsjbso5OjPUPH97OHxQ+U/ONpvv7kEN37/Z6WLVvbw37EuNvLoccq6WuXRuP8Vx9TdGQd13eOoV3YaHvY7/l3xbzR8L2A0/dxGb61VEQuK+PbSSt/1NiGIyIizZYS83oRzOS91gsvrQ99a6lIc3P3U753mrE+7N/4KSL+ogNz3lW1XC4vJeYiIiIiIn5AibmIiB/4pjifE8mL+Pzv+sZAEYGP/nqEt+an8FlusT0kTZgScxERP/Djd6V8/+9P+LH0W3tIRJqhsm9L+ebjzygr/c4ekiZMibmIiIiIiB9QYi4iIiIi4geUmIuI+IErbrqFWwbHc1WnGr7NRESahetDOxJ2/yCubX+TPSRNmBJzERE/cMWNt9BuYIwScxEBoG3IbYTE3cXVt95oD0kTpsRcRERERMQPKDEXEREREfEDSsxFRPzAj9+V8t0nZ/nhm6/tIRFphr776lu+OvMJZed1u8TmpAET8yLWDApgzi77eP3YNz2AmJSiCj+LiL/azYzI9nSxP+57gVPAqTUDPD+7nVozgC6R7Zmx1zLYRHxTnE/B/y7miyMH7KEK3lzQniFrTtqHRcRi52/6ErHqTLU/17eiVQm0+I35JWGFG4los5Cd1f1cjbMH/sHbC/8vn7n0BUPNSQMm5iIiFQ1/7iwf5lge239LJ/skMym/a2UU63LO8swge1RExNewPx7k2MwO9uEqx+tdyFiOnVvCMPu4SDUuX2K+axzhQQHGY1ASp63jg8YxZ5AZC4pijaf4bVTdjW2MOXN2wemUKKakQsHiMEul/DXmuNefnuleQEQao73TzKT8Oe42h06tGUCXBbttE73eXOCtwrsr7G8uaM+Q+4yqu7vibJ3nHvNd26jse6r0e6dVqORXsHcaXe6bxoz73GsPYLVZ4Patdp9k9X3utT8B4LX3DzDEcjze45vGm54dAOz0fuLg83sw1rS/dk6+wJDIAQy5r7K1RPxA5kJa3LGRlb/pS4s2fWlhrypnLjTH+9Lijo14UoPCjUS4x9sksLLQGHZXxotWJRC7FXIfjSdi1RlbxfwMK+9wb9uXMe50waxqj/EciyVWlcyFhDxaBFtnGlVzT2X8bcb0SiaXLGLtr8ncrtLXJc3S5UnMi5KIGX+E+QfKyCvJZz7zGGxNnl1b4BEz5shlaZIRO50Sz1KWs6ekjLxHIN1lTO84NZvVCRC6KJ/MqcEAFCw+THxJGXkHlhOaGnfJWmhE5BLbO40u07JZmOlNygE6Td7Ph08NsYx4nVozgIlsNCrwmY+RM82biJ5gNH/NOcvuyZ2NebmP8VdzHitvZ8Ze6PTL0XTLzTeS75P55ISFQaGZtBdm0y1+WKVVfR/522DWWT7MeY+FYfkseb7qkwirnBxYl3OWD58bwYmVt7Mk7D1zjW0ssbSvnFi5majMs3yYs5HhO8ZaTj5uZ4nTfO3PjSBtmvekAPKJnHWWDy0nOCJ+5VgyL0buoPzcQTJGZhFrbQv5VRaj/3SQ8nM7WEEyIb9520isRyfT+08HKT93kPI/dWfuUnMbU/DMVDJGgvOJHRUq5Tt/E89cZlF47iDlf4pm86+8iT1kcdhzLLD58RqS5pglFD4RDCNXUf7H/pZAfzYdmYWTaDLsFfTCjUT86jgrjthflzRXlyUxP525lgLHJIYGAwQz+ZFRkJ3rrZozivihRmzoQ05zrIhdL+cS98hsOgIMXcx8h2eDihJGMxAg+H4SqpsnIpdV2jRrj7mtkpv/OHdN22YdqYWTZO3IZ/i9ZtLe+bfstiaizjAzqTbmeZLszr9lYTzkFJ6EzmFE5m8m6yRQmE3krMcgP9/cBkb+srN7tWqM4P5BAJ2Jjg+zByu4pksnDh9/k4LbE4zjCYmiGyNYOLkz0Jlu7rdCt/jHmNIZYAgPzwkj7fXdwG5e24H3tQ9KZGFYPtmeRCOMKN0mXfxaNCvM5HnY/Fk4t2YaFebjLnIjZrEkBqADcx6LBnfMKmaJLSmuzhly/wGjHxtLMEDMVFZEFPFiuruaHsyv48xjuT/aumG9KUpPIzdiOCNC8L6ufxRRBLS/owf9/r8p3OjoYt9MmrDLkpgD4JrHYHeryfgt4DpMgTvm6E2o72zARY5ZIa+NUKeycZHGwLfH3F7JDWNh5ln+OgeWxNS2/SKf7Hz7mFe3MN8k+cTK2z0nBhN3wIn8fGAI98cbCe2br2cTFRJGVO423iSf7PwoutUmLw+Lopt9rBotAq/g6/Nf0KVb7d677K/DynuycztL8s2TDQBqeewil0uEA/s5KEBR3nHfge7ueR2Y8+4q+FUV7S/VKuLQMevzDjh/Yn3eHWdDnMgeSybE3cryqyw45iIXuOK6a7iu860EXBlo30KasMuXmCekk1dSZnm8ZFS4q+Qgsnb/XolIUxE2mujORtvKuvhtTKymp9wrjKiqc9YKKlx8arbH3H3vCHIKd3MiN4punTvTzZnNiTXbSIsfUY9tINWfRFTHOIGo+LP7ZMb6mnZPVjYujYSZlIJZJTd/DA7v7p1ji0F/Np1zt7JAbK37tIPpE2F9blTQG9zIVcaxex66YLQ5uyyJeceYSYSmzvNc1Llvuu0C0EoZbS3pT5rzdi1iaR0q6CLSuN39lNFLXfNtAo22D6O1w3vRo7fP2jsvOj6MtGT3hZzGRZ6e9UOiYMfjbMWofN99bxRbd2R720QuwokdO4197t1Gmj1YWzu2mZ8gWNtXjEq/p5/95AsMaaK3l5SmKotN5iVnO1/LgpExRpLa3YHzWDILMzH6yh93x95mjOWCTwB+Emy0ptTIqJB7esczU5h7zNu+0hCC44bj3Jrsc8GqLgBt3i5LYk7wbDI39GLpnUYry5TUUazea/aOV6Pj1B3GhaJBAYSn9/bpMQ91Om13ZRGRpmUIz5gXRA5Zc7Lau7Lc/dR7LMwda7RzxDxO5HP7zX5sX50m72ed83HuimxPl8ixpMVv9FaXOw9jJPng7kEPiYL8KLNv/MLd/dRGhueb+3w9ioVmdf+7z/5Np1vDueVc7e5Z3G1OFK+Zx50z5z3PLSTtrx1LTMTvRUTD40ZbR+w/ZlHo7hcPGcuxP0Wz+Vd9adHGvGDzj/2NavmfujO3l7sVBDIq6TF3RgZ77spiNeyP5gWXZhvJ6D+lMuci2leCw7t778piFRJM78ruyhIylmOW44/dGk3Gu0bP+xdFZynMeIdvPv7MuoU0cS1KS0vL7YN18W5OCal7C4nu7yC8y8328KVTlETMnWtJOJDN5NqdGksTsXb73whsDQvG9rGHxA+8n5lN9lt53BXfl7Y3XWcPSxW+yjvKqU3Pceu9D3Bjv1/aw1KFH8p+JGvDPjo52jN0fD97WPxAyT+e5utPDtG93+9p2bK1PeyVuZAWjzsoNBPT5u7DN97DteUNes94iFt6hdvDUoXzX31M0ZF1XN85hnZho+1hv3d5KuYXaN90973NAwi/cx4RG5SUi8hlYLaIeO8mY3nUdI9zEWm8rPcctz/sVXKRC9CoEvOBz1ovFi1j5VD7DBGRBtD5t+y2XjBqfVTxzaUiUoOYJZT7e7U8ZontQk3Lo5IWGpG6alSJuYhIU9WydWsCrr+RloFX2UMi0gy1ujKQq9q1JeCKatp/pMlRYi4i4geuDu5O2O//h+t/qqqbiEDHX/RiwB+mc2OEX3+GIPVMibmIiIiIiB9QYi4iIiIi4gca7+0SpdnS7RL9m26XKA1Jt0v0f+7bJba92edrNkUumS8+OdZob5eoxFwaHSXm/k2J+YX59lQh/3z9VW64fRBto35mD0sVlJj7P3diLnXzTdGPfJXzI21/3orAW1rYw1IDJeZKzKWBKDH3b0rML4y+YOjCKDH3fz9894V9SGrho11/oWDLy0TOnEa7Xj3tYamFVle0tQ/5PSXm0ugoMfdvSswvjBLzC6PEXJqq01k7yX9pPVFz5nFTn5/aw9JE6eJPERERERE/0ICJeRFrBgUwZ5d9XETEajczIgew+qR9vGZvLmjPkDV13fAkq++rzXYXflxe1jWM/c7Ya0Ra39COG26/mys7dLZtIyLN0bVdunLb0GiuuvkWe0iasAZMzEVExKszU7af5ZlBxrPAm9sTNOwhru4abp8oIs3Q9c4IwidM4ppOnewhacIaPjE/kURMUADhQQHEpBR5x4u84+FB49hn2eR0SpQ5HkB4UBRrzM32TQ8gJiWJOe7Y9EzLXO88EfFPby5oT5dI87Fgt1lFHksa+SyJ8a0se+bd9wKn8I4PuW8AXSLb838WDmDiDjix8vZaVL8t+75vGdk+kd3McO+rDsflrnxXzb6GpWJ+8gWGRE5j9RrjtXSJHMDqk5bjWLDbtk5d9isiIo1Fgyfm6YsPM7+kjLwDy2FxvJk8ZzLnznlEbCgjr6SM1QlbmDIoidMAu8YxeHEvVpe4Y7ksTcr0rFew+DDx5nqhqXEMzl1e6TwR8TN7pzEx9zH+mnOWD3PeY2Hu46w+2Zkp2zcynDAWZu5nSmd4c8HtLHFu5MOcs3yYs5Hh+Y/zB0syesL5GB/mnOX/LdnPunjoNuc9dk+uvh3k1JoBTNwxgnU5Z/nwmShy8t0RI3nOmfOesb/Mx+i2oxbH9dwI0qbV1OZScQ1f29iKsd66+HyWxDxOVKb1GIxZdd+viIg0Fg2emIcuWsxAgODZzE/IJTWzCHZtJp1RxA815gycvZxQ12EKAIa+RF7JS8Y2QKjT6V0MIGG0uZ6TCJzMnx1T+TwR8WOdmbK9smQV7n7qLB8+NcR8FkZUmG+8W5htoBZO5OfTbU4idwN0/i0L490Ro73Ek9h3DiPSu5nFbl7bAcPvNY9rUCILw/LJLrTPq71WLcMZd9cNlH//vfGa4h8zfh8+x1D/+xUR//TDd9/x/Zfn+LGszB6SJqzBE/OIbsH2IdMWprhbUu6cRwFHKCjCc9Gou5Vl8OJcn61CnQ6f5yLSSAx6jr/Gb+YusyWjyvaTky8wxNNacjtLPNVtQ2RIJdl8tU5ywvdtxNfead42lsixpNnjFmnTfI8rp7CK11ALjlsiuX3TPP79N2sjX+Xqc78i4p/O7vkLf/3tFD77xwf2kDRhDZ6YHzvhbvwuosDa2OlYzh6zXcV4ZDM5GE6nxLMUb2zPIlXCRZqKTpP3my0q7zFyx+2V9EufZPWMx8HdWpLzHgvrXiC36Uy3Kt9GdjNj2jaGP3fW2zpjn+IRxsJM9zzjUVMLTf24XPsVEZFLrcET84KXXzN6x4teI9XlJCEmGIaOJs41j6fNWykaF3D6XgBqyORpW8VcRBqnU2sG2C5qDCMqxPK0MnuXVaiYX4i77x3BiZXLeBOjIr9kh32G4dSax6uomA/h/vh8ljxvHr9Z1a94YlHfLtd+RUSkITR4Yh73EEbLyp3ziNhgVMUhhpUHlnNsvLtdBeYfMPrKO05dTpxrHoODAggP2kz8hlGQnWsk9yLSaHWavJGFuWM9LRlb4zeaPeZhRIW571zSmSmzRnBi5e3GvNdHsC6+6taNbmFhtbsry6DnWBe/jYmR7ekSk83IOe4y/BAenhPmaRWZyGOWHm7rccHdT73nPf4Yo6rvvvVh1XzXuBAXtl8REWkMWpSWlpbbB+vi3ZwSUvcWEt3fQXiXm+1hkXq3dvvfCGwNC8b2sYfED7yfmU32W3ncFd+XtjddZw9LFcq+/orSklNc0e5WWl9/oz0sVfih7EeyNuyjk6M9Q8f3s4dFGq3Sf33KNyVnuaZTZ65o09YeliaqwSvmIiKXnM8FnLaHT/tMfbPdc93nUX2VPOCaa7km1KmkXEQACGx3EzdERikpb2aUmItI0zPoOZ+LI30enlsvXgrG7RYr7DPnLB/mVH47SBERETcl5iIiIiIifkCJuYiIHyg79zlfHHqH0o/P2EMi0gx9ffo0Z/e+Seln/7KHpAlTYi4i4gfOl5zmTNpLfH3imD0kIs3Qv4/+A9fqF/iyuNgekiZMibmIiIiIiB9QYi4iIiIi4geUmIuI+IOWLWnZ+gpo2coeEZFmqEWrVrS84gpatFSq1pzo/20RET9wbbcIui9cxY133G0PiUgzdNs99zJw7Uu069XbHpImTIm5iIiIiIgfUGIuIiIiIuIHlJiLiIiIiPiBy5iYZzInKIA5u+zjNSlizaAAwoMCCJ+eyb7pAcSkFNkniUhTcvIFhkRO4037eIM4yer72jNkzUl7wGY3MyIHsLqmaVU4f+Ykp7c8wdP3/IdnjTcX1Ga/ItIUfXroINlJf+BcQYE9JE3YZUzML5SLHNcoVpeUkfdsjD0oItIolX11ji9dZ2hzbWvP2N1PnWX35M4+80SkeTj/8cd8+veDfPfF5/aQNGENnJhbq92bLcNJxARFETMogPCgcewD2DXOmGc+jMp6JnOC4khnC1OCokhaEsWUVChYHKaquUhjc/IFhkQOYMh97eniroaffIEhke3pEmkZYzczYh7nBNuYGDmNN80K9oy97oUslWr7mmalfcYC95rW7ar3pnub+5aR7RPZzQzPMbany4LdZlV9LGnksyTGWzX3rBFZm8r3JwDk8KlnDU/F3Hwdq9cMMNcbwOqTluNYsNuyjvH7qevrFRGRy69BE/N908NYynL2lJSRFwfpPtFcIh4pI6/kJQYWJREz/gjzD5SRV1LGnkVO0p9M4jQxrCxJJw4n8w9kM3thNqsTIHRRPplTg31WE5HGIJ/IWWf5MOc57jYT8MjnzvJhzlnWxW9j4n0vcIohPJP5GN0Ywbqc56j5ZoLWNQG2kRP2nrkmpCW/wCn7Jjan1gxg4o4RrMs5y4fPRJGT744YCXjOHGO9DzMfo9uOx1l9sjNTtm9kOGEszNzPlM7mGrmP8VdzHitvryFJvhmASG7yrOFrG1vZaL6OfJbEPE5UpvUYjFlvLridJU5j3ofPjSBt2oW314iISMNqwMS8iIJsiHtkNh0Bhi5mvsMadxIZZv4YPJvMkmwmm7l2x269rBNFpMkIIyrE/HHvNtIYwf2DjKd3/+4xuuVnc8I6vVYsa5rPR/7SyHLvvneENVClE/n5dJuTaCT2nX/Lwnh3pDNTtlvaSzqHEendzOIkWTvy6RY/jE5418gprDpDbt3metpGdebzL7+zh0ze19EtLAziHzOSd59j2M1rO2D4vUOMp4MSWRiWT3ahZ4KINBJXBbXnljv6EXjjjfaQNGENmJi7yHHZx6x6EWopeu+b7m1jCR+/xTpRRJqMKLr5VIa3MdHdnhHzOCfI5kTVuWwV7Gvan9fkJCdy7WMWe6d521gix5Jmj1ucWHm7Z+7EHUbCX5XAoI50ePDnfHj2S3vIVPvXkTbNfXy3syS/+hMCEfFP7Xr1JnL6TK7rqo6A5qQBE3MHkT4V8mrsGseUVPMCz5Iy8jaMss8QkaYozGz98Dwqa+mwOZlPjn3sonSmm9M+5rabGdO2Mdxst/kwZyPD7VMsvPPMx1NmJfuSCmNhpu9+dQGpiEjj0ICJeTBDH3L3igO7FrG02gq6WxFrnlTFXKTJGzSC4fmP8wezD/vUmgGWC0ArSnvduODx1F82X0C7S/XuvncEJ1Yu81yQumSHfYbh1JrHq6iYdyY6PszSz25cqFnzBaAXawj3x+ez5HnzYlDzYtrqe9tFRMRfNGBiDh2n7mA+8xgcFED4k72Zn2CfYRq6mPmOLUwJCiA8KB4eWU6o6zCV3ckz1OnUXVlEmgTjIs8csw3jrpWwMNO8gLNzGJGeu7J0Zsozj9Ftx1ijRYTR1VatL8ig54yLTyPb0yUmm5Fz3BfADOHhOWGeVpGJPGbp4Q4jKsx7V5ZOk/ezzvk4d7lbXuI31qJy7bvGhbj7qfdYmGv8brrEPA5z3uMZs29fRET8W4vS0tJy+2BdvJtTQureQqL7OwjvYtxVQORSWrv9bwS2hgVj+9hD4gfez8wm+6087orvS9ubrrOHpQpf5+dwctNz3HLvA7S7syFaXpqGH8p+JGvDPjo52jN0fD97WKTROp21k/yNG/jJnHm0661/75qLBq2Yi4j4BZ8LOG0Pn3uC1zffe4xbHxN++zCUl9Oi/KJqJSLSlJSXU673hGZFibmIND+DnvO9KLPBLtA0brdYYZ85Z1n3/HL7ZBERaWaUmIuIiIiI+AEl5iIifuDK9h257cFJXBseZQ+JSDN04096EjFtOm2CdR/z5kSJuYiIHwi47nraRP2cK2661R4SkWbo6g63cWu/u7jiBn3zZ3OixFxERERExA8oMRcRERER8QNKzEVE/MRXedl8uDaJL10fgG6RJtKsffvxx/zr8CG+P/eFPSRNmBJzERE/cf6fH/FNcT6nt7zAiVWL+OLIu/YpItJM/OvQQf6xYhlfnDhhD0kTpsRcRMRP3PSLaMIeXsZNv4jmx/Pf8N1nn9iniIhIE6bEXETEjwRc24abfzmcbnOW0q7/PT6xH89/6/NcRESaFiXmIiJ+qGXr1rQMvNJn7OPdO8hbnsin+3bywzdf+8RERKTxu4yJeSZzggKYswsoSiImaBz77FNqad/0AGJSiuzDfu90ShTh0zPtwyLN095pdImcxpv28do6+QJD3Ntbf75Aby5oz5A1J40ne6fR5b4XOGWf1MACb2lPy1Yt+WRPOnnL5vLZ+xf6riki/u62e+5lwIvradezlz0kTdhlTMwtgmeTWfISA+3jIiIXovNv2Z3zHHfbxy/UoOf4cPtv6WQfb2A3/GwAob//H25L+DVX3daVq9p3tk8RkSaiRatWtLrySlq0amUPSRPWwIl5EWsGBRAeFED49M2WYWvF3DInyFIJ3zWO8EFJrJnujlVVYTcq8e7tfSvS1phl+6IkYiobr2yflrk+Vfpq1xjHHM9rimJNkTE+eHEupMapai7N18kXGBLZni6R7Znxui22dxpdzJhPtdqyTZfIAaw+CbCbGTGPc4JtTIycxpvWivneaXS5bxoz7rNvA3CS1Z5x735OrRnAxB1wYuXtRtXcp2Luu82MvdbjmsaMBZXE6lGLli1p06MvXX+TyFWdfL+q+9vTRXz/+Wc+YyIi0ni0KC0tvaib5b6bU0Lq3kKi+zsI73KzPexj3/QApmQvZ8/e2XTcNY7w8VuI21DGyrAkYu48zPySlwhNiWJw7nLyno0xE+nNxJe8xEBzfuiifDKnBhtrkU7eszHsmx7AUmc+mVNhzaAwUh8y5lCURMyda0k4kM3k4CLWDAoj55EyVg412kiM/cCcoDjYYIxXeYxDje2Xukax2nM8GD+TWbc1oozj9h5DjP1XJdVYu/1vBLaGBWP72EPiB97PzCb7rTy6/9Q3aazoHZ4cPYf80a+y9j868N7zd/LIW0N5cvPj3P7PzUz6fTrDnt5Cwq1nSE18gBe6rmT377qSmvgA+b86wCN9gEOPMeS9e9n9u37wz81M+v1xfuvZ3vz50GMMWbGLIXMP8Egf61r9jH1i/Ow+HuYaa7/3/J280Mk4Ng49xpA/dWfTstF8+PydPFI8nU3LRhN06DGGrMjjt09vIYHNTPr9s2B9Pe559pd+SZRT9vpqyr/+nJa3hdOy289o0e42+6Qm6fjfi+jkaM/Q8f3sIRGRRqUBE3PfxNjneZWJuYVPImxWqM1t8CTm9kQgkzlB84g8kM1kvPN9WmaqWdc3+TYSbs9+qplXXcyajCsxvzBKzP2bOzGv0ecZLH6xmBFzptHD9rz93x7m0WODeGJCLO0ACp5j6l+78sSEn3N4/UxO3bWZSaHVrGf9ueA5pm6HqeZ+/vW3h3n00zGkxNj7Nj/hL5a1j2aOZttNq1j0s5ur2b+xzTsRq1gU9j6LX9xLv1//gV9ebz1m8zU0gKvO/5O25/K4+tuzAHzS7ud8eW1X+7QmSYm5NDX/PprNx+8d4LZ7orm2s9rWmosGTMx9q8pVJebuBHhKqrGVUWk2E+gnextVaKpJzM0KtZeT+QeymZxvS57dKszHdxvLPqtPzGu3hhLzi6fE3L+dKfjYPlS5N6cTPA3WHHvW6AU/+Ufuic7mkWPP0m3N3QxYYf9SjfvMuXuYFTGBNJ8x3+3vtv785nSCk6PYn/YbOgGn1tzNgLxHKVo62NzmCax7Gv7cKZLvhjfnd+LJ8Hd4Y3In41iTo9if1o2VERPAnAOWeb/M9O4T8/VZ9tuQvvvkn/z7/be4eehwWrZubQ83WR1Cb7EPiTRap7N2kv/SeqLmzOOmPj+1h6WJasAecweRDvtY5QY+W0ZeSRl5Jekw3uzJBnAdpsA9Kd/ys0cmc8y2Eff2ce5QWG/sBTYPx3L2lLi3KSOvJJvJ9uJ7TepjDZEmoEPoLbV73H0nDq6knft552sJMJ/f2i4AxqRRWlpqefyJMaG30CF0JC+7x7ZdyeSEzXxn297n5/ZXwhXXcqu5n1vbBcB119Mh9BtenvMEAU8dN9c/zrJIuKq9Ma/ddRDQrp1xbJ417qCfZU6H0G/4pMCcZ91nJfttyEfXO6LoPWMqHR23+YyXHTtA638VVZjfVB4iIo1dAybmwQx9yEn6k0mcBti1iKUu+5zKbn3Yi1BPgruFHbvMeelbIGF0tXdyOZ0yj3T3k2AnEZbtT6dEET4oidNDRxPnmsfT1vEqLyytQn2sIdLchN7HpMitJCYVA5D1P4m43xK6Dp+EY1MiyebZd9bkQAL7JFNMFhMCe3rGAejloF6aNTIeIzHHPmjXFUcv2PpoMsW4t3EwaXi9HMElVfbtNxRte4Wjq5J4d85MPtr9Bj989519moiIXEYNmJhDx6k7mM88BgcFEP5kb+Yn2GfAwGfTiVgcZt7BJA42WFpPHKPgSePuJlOyl7OnQgtIDL9f5CR9vDmH5cx35JKTb8RWHljOMTM2eHEvVu+dTccK4zD/QF1v3Xhha3Ts1kt3ZZFmrCuzUpfBgu4EBgaS2GMZI92h0Fl8sK0XiRGBBAYGMnzTSNIOzaIr0ay3jAeOgLQ10eY2DnqxleGBE8iy7KVqXZn1xEhc5v4DXx1F2hg4ctw4UXD0cOBa0J2e5omDW/Sa4ywjke6BgQSO2MrIbR8wq8qP4/xHwFVXc2fy/9I5bjhlX35F3toXOf9JLduORKTBXXHjjdwQEUnr666zh6QJa8Ae84tk7zGXZks95iIX54fSUv6dk81Nffr6jH//5ZdKAkRELqMGrZiLiMjl1yowsEJS/uP33/Pu7BnkPPM035w94xMTEZGG0XgS86EvkadquYjIJfFtSQmtrryKj997l/fm/p5jzz3L919/ZZ8mIiKXUONJzEVE5JK5plMn7lz1v0T810zahIby+XEXAVdeZZ8mIiKXkBJzEREBoEXLltx6Zz9+uvhJ+j7xJC1atfKJf/r3gz7PReTSObPnL/z1d7/hs+x/2EPShCkxFxGRCq5o29bn+Rf5eWQn/YH3E+fyyfvvQvlF3TdARGrw43ff8f25L/jx++/tIWnClJiLiEiNWgUG0q5Xb74+fYqjq57mb/893z5FREQukhJzERGp0bWdu/CTh+dz+4qn6XD3ENqEdrNPERGRi6TEXEREau3q9h3o/n9+Q/dfT/EZ/+7LcxRs3UzZ11/7jIvIhbne4SRs3ASu6djJHpImTIm5iIhctLN7dnMyPY0DM6dR/NqrlH37jX2KiNTBtV2D6Rg9jKtuucUekiZMibmIiFy0oF8MpOO9MfxYVkbRKy/zj+VL7VNERKQGSsxFROSiBd54I2HjJ3LnsymET5xMl7jh9ikiIlKDxpWYFyUREzSOffZxq13jCB+UxGn7uIiIXHJXXNeG2+65l3Z9fuoz/unfD/KPlcv56tRJn3ERqdx3X3zBFyfydd1GM9O4EvPg2WSWvMRA+7jV0JfI2zubjvZxERG5bD5+9x3+dejv/G3+wxx9eiVfnz5lnyIiFh8feJtDjy3k8+Mue0iasAZPzPdNDyA8yHjM2QVQxJpBAcQMijLHjOdGDCCTOUFRrCmyV8yNee61YlKKjOmWivm+6QHETB9HjDnHt5KeyRz3+PRx3n1UZ9c4wgdFGeu519o1znMM3tfknjuOOZ5jtK5vOXZzjvf1+r4u77iISOPl/O00IqbN4LqQUD45+D4f/UVvbiIidg2amJ9OiWIK6eSVlJF3YDnHxnvbUgqilpNXUsbKobaNqnA6JZ6lUeZaJelELF5UaYtLQSrMN/cX6prH0+a/Bfumx5GeYGy/x3mEdPuGVXFBwoEyoypflETM+CPMP1BmrLPISfqTluTftQUeKSOvJJ/5jlyWJmWC+9hZzp6SMvIegXTLyfC+6WHe17VhFOnja3HCICLi51q0asWt/frT94kn6b3wMbreN8In/v3XX/k8FxFpjhowMS9i18u5xMXFGE9tbSmhTod1ch3FsLKqFpeE0cZ48P0keHaRyY5UJ/NnG8fScepy4iybVK8XocHmj8GzySzJZrL5vGO3XtaJwCjihwIEM/Qhpzlm/h4eMdtthi5mvs9x4f0dDV3MfEcuOfnuuIhI43e9M4Irrr/BZ6z41VTenTOTkr++RXl5uU9MRKS5aMDE3EVONW1SEd3c2W7tdJyazWriamz5qDThL8rlmH2sthy9CbU8tbbmhI/fYolUnGuo/vcAkD7evWYYS11w7IRK5iLStH1/7hzflpSQ+/z/8v7c3/PvnKP2KSLNStCAQdzx9LPcENnDHpImrAETcweRleTINaomiR74rNFCkleSDnVp+Qh2EmEfuxC7xjEldRSrS8zj2DDKPqMSNf0enJ7WGPcjc2rdTlpERBqbiP+aye0rnqbDoMGc/9en/FB63j5FpFkJuPpqrrrlFloFBtpD0oQ1YGIeTGgUpKcbfdbGhZxVJ9Pueacz11JgD7ov7HRf8Am+LSY1iiE+wdrzPa/2PeZVKmLNk7aKeaWMthZPL/quRSz1VNB9j8v4HVX9aYCISFNydfsOdJ/yn/R7JoWb+vT1iX2Rn893X57zGRMRaWoaMDGHgc/mMz/bbD+5cx4RG7z92V7BTF67nNBUY94UJlXa/z3w2XQiFoeZLR9xsKGKHvMqDHw2nbga9lGjoYuZ79jClKAAwoPi4ZHlhLoOV3oiYdVx6g7mM4/BQQGEp/e29JhX/B2xKL/WF8SKiDQFrdu0sQ/h+uPzvDtzOgVbN/P9V7pQVESaphalpaUXdZXNuzklpO4tJLq/g/AuN9vDjcOucYSPh9VVXUB6KRUlEXPnWhIOVHaSIpVZu/1vBLaGBWP72EMi0kQVbN3Mmb+8wYH9m1l9Yxzvr17EDVE/sU9rIMUk9+nO4SdKWR9rj9WDjAkEPtqb44dm0dUWypocSGKP43ww2x6RpuaLvON89sERbu1/F1d3uM0eliaqQSvm/sP3XuHh448w/8BLDDRbRzzj1kc9fpuozwWjVX5yICIibqEjR9PvuRe4LQRaXncT13Rtnolp9JpSJeXNxJeFBRRv38Y3JSX2kDRhzTQxD2byXusFlmZiHDybTMtFlz6Pevw2Ue9Fq8ZDrSoi0mRlTCCwTzLJkwMJDAwkMHACWZ5gMcl93OOBBPZJpti6nXvc3ObUcz9n8ptQvH8tP1v9mWcVgA/T/i/LegQyISmZnuZ2PZOKyarFfidkmMMFyfQMnEByUk8z1pPkgiwmuI9jsncFAI777sujwDvus9+MCQT26WnE+iRTbDsOnzWA7ZUce9Zk9zxjW/vrFZHGrZkm5iIi0mByElnb4zilpaWkjdnKcDPBzZrcncReaZSWllJamsbInEQeywDIYsKIIyw7VkppaSnHnzpCYlIxXWd/QNoYcDzl28rx3ef/pvDlP3Pqn7A1eQ+bjrso3TYS14LuJPY4TmnpcZZFbiXRTFx99rttJFtH9CTZc3HQVtZixNLGuEiMSKT3sVJKjy3DsSnRMg+2LjjMslIjxoLhZiyLCRGJ9NpmHHvamK0Mt55w5MCkY6WUHpoFScN9Xn+vBY95k/icRA4/UOo5dvfvzK7yYxCRxkqJuYiIXGIjWWYm0tH/vQzHpi1kmW0ZpWuizTkOekf6bOTRdfYH1bZvXHH9DfzsyflcfRV0vqWcT/57Pl+17YrDs9+uODzf/5bFlk0w8gFzv7GPsyzSxWHP3bEcTBpu7MvRwwFjljErFAh1YP8KOcdTjxMNEDqLZWNcrE0rhowtbGUko8ze8+j/XoYj5zDer6/ohaPiF1wA0awvXW+sB+BZoyv3ja36HruVHoM0CQHXXss1nToRcNVV9pA0YUrMRUTk0orsTaWppU/LR3cSc9yBaNYfm8TaCDNmrThX4dout9HhJvjZ1FV0jhvOte19v1nUbusI3/0eOe7eQ1WJc0W9uld1srCV4e7XFZGIiyO43JVsy++i6+wPSGN4xZYa27zqVH0M0tgF3TWAny9dwfXOevnmFWkklJiLiMilZa0Yu9w/F5OckAhPGS0uRsuGZZvQWXxQarayjF1L9ypaOexa3xpC6MjRPmM/fPcd+UegrOAdyn/4EXB42mTcj+oq8lXxJvPFuI5YApHLOG5Zu7T0A6PqXonoNe45aeDTUlM7VR6DiDRKSsxFROQS28oWsxqc9epWGDPK0rJhynjMWzE3L8K0puKOHrWpH1fu61On+O48fPfeFt6dvZPoX7pI/B9zdbNq71OtriXXxu1GJb9gO2tzzBaY2FGWXnkoTuppu/DUy3shp1vtq/VulR6DiDRauo+5NDq6j7lII5IxgcBHYSRb2ZpjVpPd9+fOmEDgiK3GvDFppDHcc4/u4qSedF9g1tkt27jH7ReAVri3eEEyPSMOs8zs2945IZC5rVbxfwPeB77ib39LY8ExY0vPWrZtipN60v3oMrMPPosJgYn0PvYBs0LNfY1dxpEFibiAkdss9zQvSKZnhDFuVOfNinmF+5NnMSFwOOZvwLuGbZ71OLz3Mcc4hl4j2brJWMHnGPxI9so/2IdELrmrgm6l25jx9mG/p8RcGh0l5iKNSIVk9PIq+/prvjz5ITfY+na///JLWl93nc+Yf7vEX3JUj7JX/oFPDx20D4tcUp2GxSoxV2IuDUGJuUgj4meJeWW+yM/nyP88TofBv6TrfSNo3aaNfYofanyJ+S8enmcPidS7bz/7NwdfXK3EXIm5NBQl5iJSn84VnCBvzf/jy+IiWrZuTYch9xA2boJ9mlwga2LeqvUV9rBIvfrqn/9s1Im5Lv4UEZFmrU1oN/r+z1Kifj+Xq9t34NuSs/YpIiINQon5JZPJnKAA5uyyj4uIiD+6qe/P+NlTy3H8dqrP+A/nz/N5rnmlqIjIJaTEXERExOKK63x7zE9lZnB4yeMc/p/FfJGf7xMTEalPDZiYF7FmUABzUpKICQogPCiAmJQi9k03fg4PGsc+z1yj2myMBxA+PROAfdONbXzWq0VF2rsP71oUJRETNI41KVFmLIo17qUBdo3zbjMoidOWkHU97/HgOSZjP5st4yIi0lgF3fULgn4xkM+P5XDo/1vI8f/3R/sUEZF60YCJuSH9ZVhdUkbehlEULA5jqTOfvJJ85ju2sDSlyExu4zi2KJ+8kjLyDiwnNHUea4pg4LP5JLwcbyTQuxaxNCqdlUPte7DZNY4p2cvZU1Jm7CfbWMuwhaW5y8krKWPPIlg6yUzAi5KIGX+E+QfMbZjHYDOhP50S5V3vwHJYHOY5Odg3PYylmLE4SHfvRkREGq0rb74F52+ncvuKp7n1zn5c27mzfYqISL1o8MQ89KH76QgQ1ptQRjF/ajAQTGiUe0Ywk/eWkTk12HzqxHu32WAmr51E6qQoYsbD6mdjPJHaCWby3mwmm0uDk/mzjTU6Tl1OnGstu4rgdOZaChyTGBpsbvPIKMjO5TRF7Ho51/sagmczPwGOnTBOKAqyIe6R2UZs6GLmX/gX1YmIiJ+5un0HIv5rJrcN9f3e0s9zj3EyPY2yb77xGRcRqasGT8wjunmy4qpZ20iC4nwrz8GzmR+VC4sWM9A6XpWhL7HnobUMrrT1pBehVR2Oa55nm/DxW8B1mAIzVLA4zHN8U1KhINcFuMgxv6RORESaj1OZGRRs3czb0/6TvLUvcv7TT+xTRERqpcET85plMmf8FuI2lBmtLCXpxFnDu8YxheXelpZa6Dg121wrn4SXva0ncIQCT8t6Lj7X3Cekm9u4Hy95TgS8x2Y+no0BHESqQi4i0uxE/NdMQkePJSDwSj76yy5O7fyzfYqISK34YWLu63TKPEvFPJM542H1s7PNlhbfizIrczolynvBJwBOIsPcP+eSmmlk5tb2lY4xkzx97bgv9hyUxGmCGfqQk/Qn3fs1LlI1qvC22K5FLFUFXUSkyWt1xRV0jo3jjuRnCfnVKDoOrWubpYiIwQ8T8xh+v8hJ+nizVYTlzHfkkpNvXBTKBrNyHTyb1Q+t9VyUWZWOU3cwPzvObD0JI/WhHZYe81FE5BptKYMX92L1XrM/PHg2mRt6sfROd7vKKE+s49RsVke521ziSE9I9/TDd5y6w7hQNCiA8Cd7Mz/BciAiItKktbrySrrE38dVQUE+4wVbN3PsuWf5sriWH/OKSLPVorS0tNw+WBfv5pSQureQ6P4OwrvcbA/7r6IkYu48zHxLi4o0Dmu3/43A1rBgbB97SETE7xz+n8V8fiwHgOudEYQkjKRt9+72aU1W9so/8Omhg/zi4Xm0an2FPSxSr7765z85+OJqOg2LpduY8faw3/PDinldWe4dXuFhuze5iIhIA+v934vomfgIbUJD+Tz3GN9/9aV9iogINI3E3Li9ou+Fmu6H9daINsGzyVS1XEREGsCNP+nJTxc/yU8ens9NP+3rE/v+3Bc+z0Wk+arXVpaAVk0gzxe/t+9goVpZRKRpKC/n/cS50LIFnaJjufWuX9AyIMA+q1Hzx1aW4vUJOFZZP1KPZvuhJfjeof7yyXq0L/dlwMjkg6wb4B13H7dj5g6OTOhQ5byqnSH5oZmwMpVZneyxpqGxt7LUW2Iu0pBuanulEnMRafR+KC3lxMYNnNnzFwBat2lLj1mzub5707n/rr8l5u5ktqJglqb5R8JaVcJtT8zr5gzJD8Uz/4T/vM5LQYl5Tgnf/3BRS4hckF/8pL19SESkUTr/yccUb3uVj987wJ3PpND62mvtUxotv0rM9y/kyllZtgq5O2EFYldx/on+3gQ4NhoysnB5kva3mdhnJlvd65nzwT3uXdedXHuTaHNOt1m4Xh5LV+tx2dQ2Ma84z3Z8nuO2vEaT57hObaTX8GQ8d3j2vCZ8XtfI2Cy2ZgB9fwoH/+47z/179dn28mj2ibmIiIjUj++//JLW113nM/bZB0doEx5OwFVX+4w3Fv6UmFdMZE2nNtJrDmw3E+YKrS7dZuF6OZj/zyfpNfgmyZUkwu5E3Exea1Ptruo4q0/MKybfhmi2H5qKq7LEfPAe36TczXPyYE/0YWTyKphV+UmI/Xgvh8aemKspXERExE/Yk/LSf31KdtIfeOe/fkf+hnWc//RTn7jUxRlcx///9u4/to3zvuP4x0hjqWmLJWm2P9QqJRt2vDVdzAgq1k6osBk1RoedqRWQwNZapGZAgKYuxHVrrBTSms4pKi+IQWJu0DXoJnUOytlrKhkQzMCAmmkTgmECwzZNcELUkYUMJQayZEOyRES9ZH/ckTw+ImXK1o+T9H4BB0jP8/DhUX997qvvHSUpqoQZHtv7la9XxQ4lZefmtXK2X4HZC8q4gXYlN6+V3HmNhSQ7/biykqKHopIKGp9ZlpZmNF4OwYu2bEnZi1lJQQ0eXDuUe2WSnWrtqB61ffGNRDWZm3fPcV4ruUcUVZuSZ53zdaro806w/74Tys3PpMWUHp6t3TWRcvYb7+5SIiZJC7KXJGnOqaTX+7ti3QjmAAD4VMsHb1Oo/17dsH+/Lj19Qc8OfUVvv/KKuQzrUg6UV2fFDlbCerGwIEmy00fcoFyuQLv7BS1ZkuzFglRwwngiFpWUVWa2fFEQlrVpvd1t6okFJWXVUw7zfWdUNJdVVAP1WKWC36bkMafBJ19Y9qytDd21FyEF5SUpdtg3N8/uZARzAAB87EOH/kifSn9Xof57detdB1Z9syia1SYrLEkF5c3C89IZRTpGlDWGm+Pu135QgyFJ0xc0eNHpY0/c74T1/MXHnQr6OsNruUpdPuyhRs+AdgQGzmklN6/JmDuwmJLV0atU3QuRoCIhc6xJ3YeVkGRPzyg7M+VchBza3t7y3YJgDgCAz92wf7/aD8d04Pg3zCm99MNxvfWyt7qJRpxKr5RJekP4slJ/kZKtrHrWqDAHgs63tVbbPqqH01ddrVhnpiWFLFluWLens1saXqMnvEHerWyvUr5QyWp4ojy/rNRp5y8TCa7VcuO2syym1JMurKqo49oRzAEA2KFe+/nPdOnpC/r3v/xzPfftv9Z/PZczl8Cr+wG3z9rT7lFpSQlq7LE6feZl5SpxpZVldbtI4GBc5QddOm0w5fCrLQivcxr0nlelJ93say9oON6p1tE5Re9POu03ZntOKKmHr3Ku5Yscaf3/CUBjBHMAAHaoW+86oLv/6lv6jY99TP/94gt68bt/q3d+/WtzGSralDxbryUkqsnc1Z7t3aXxXFqJmrFo5UkukqT2oCLuj+WKcyXAhpy2ls1T7/ykRKr8uar94xXt/cpPOeG8IpZ2bnb1jtXjXqhoC/8TsBfwuEQAAHaB15//ud66fFkf+uwhc2pb+elxidhIq5/d7gc8LhEAAGy7W373rlWh/O3Lr+g/vvGgXv6Xn+qdK1dq5oDr4j4+kjaWjUUwBwBgl/qfl17Sm7/6lezvf0/PHvuyij/5sbkEWyw7WtsHbh6DxvPD/WdZqb7O6jeobvM3fe42tLIAALCLlV5/Tb+a/IlefmZGN9/5CR148CFzyaailQVbiVYWAADgWy233Krf/tKf6VOn0roj8UVzWlfefsscArBNCOYAAOwBLR+8Te+//SM1Y5cuPq1nv/qAXvrhuFZefbVmDsDWI5gDALBHtd5yq/bfcqsuPX1Bzw59RYtP/qO5BMAWIpgDALBH3db5Sf3eo6cUeWhEt951QO/78IfNJQC2EDd/AgCAut5aXtY7/3dF72+/3ZxqWvnmzxtvuknat8+cBjbUu++8oytvv71jb/4kmAMAgLrKofrmj9+p2+/5nD4YuXvd4bq8x/tu+03tW+drgfV658oVvfX6awRzAACwu7xRLOjShWm98m//Kkn6SPxP9NE+80vf18bjErGVeFwiAADYlT4QCOp3vnxMXd/9ntrv+ZzaDn7WXAJgAxHMAQDAmvbffItCR/9UrbfdVjP+8uwzWn5mpmYMwLUjmAMAgGtS/PE/a+GJv9PcA/erOPmUfv3GG+YSAOtAMAcAANfkk2N/ozu+2K99N7xHhXP/pNdf+IW5BMA6EMwBAMA1ec97b9LtsT/W7//t47rzq0n91qc+bS4BsA4EcwAAcN3qhfKfPzqmNwr/aQ4DaIBgDgAANtyVt9/S/166pNLrr5lTABogmAMAgA33nvfepE+nT+sDHw2ZUwAaIJgDAIBN03LzzeYQgAYI5gAAAIAPEMwBAAAAHyCYAwCA7bd0RpGOTrUaR2Ri2V0wp8GOTg3Oel/kjLX2nVHRO2yaHWm4JjvqfY/6ihO9ah2dM4c3RePzqff5sdsQzAEAgE8ENTY1r5Vc+Ugrkh5SaslcJzeoDik/dF4rZ/sVMKebFD0xr/xAmzm8bfx2PthaBHMAAOBTQUVCBeUL5viyUn1OKK+G2DkNdvQ2CPGOydFyJX5EWXespkI9O+Kp1rtrZkdkpQvS9FC1au5d56nEZ0c7FenrdSr96ccV8byPc37e3+urrZgvK9Xnvs/oBWMldiOCOQAA8KelGY0vBhUJegeXleo7ouFw2qgsd2k8d07Jds+Q12JK+UPzWsmd11goq55VrSlzGkwuVCr29tCChieWpe5HZA8FpVhaKye6nJabZFaJlLuXUrI8e9mKy87NKz/Uo8FQVply68nsBWVihxWtrLy67OgRDSspOzevlUNSxlyAXYdgDgAAfKKg4binxzyeUiRVG7YzySMaXvS+pllRJbolqU09sZqkX1dg4Fz9lpKCLTuU1MPuXsljUWn6QrUSHg66bTXO++QLTvU7ezGrxKGuyjZXtyx7QUocc9t0uh/QGI+E3/UI5gAAwCfMHvN5jXcbS2JpreTSSkwPNbhJsoGQJcscq9Gl8am4xssXBg1uFi0WFmoHgrX7WqFq6A8cjEvTMypqTpnp8oVBswrKX9MFCHYygjkAANgxnKpzl8anklLDG0OvUXu/8u4FgR2bqmlRKQsEw7UDBVt27UhV+0ENakqTE+tvY3H6680x7HYEcwAAsPO092tySBqOX/2GyqYsnTFu1qytflcELVmLKT08K6ff/XRWahi629QTk4bT621jUaUVJnPardzPPn6NLTzYSQjmAABgRwoMpJ0bOTtGlG3iqSxrau/X5NCCetz+dms6rkm3xzwQDFefytLer3wqqkyyU60d7s2ZJxqH7sDBuKxKf/v6BAbSzs2lHZ1qPW1pLGauwG6zr1QqvWsOAgAAbITnH3tUr+bm9ZmvP6gbbtxvTu96xYleWYtJ54ku2HRvXr6s+R88ofZ7Ygodvdec9j0q5gAAAJsgO9opKx3WpDeU1zwr3Tjq9LRjb6FiDgAANs1er5hja1ExBwAAAHDdCOYAAACADxDMAQAAAB8gmAMAAAA+QDAHAAAAfIBgDgAAAPgAwRwAAADwAYI5AAAA4AMEcwAAAMAHCOYAAGD7LZ1RxPyKes/X1GdHV39lfXa0U60dvUot1Qw3b+mMIh0jyprjhuxopyITy+YwsOEI5gAAwCeCGpua10rOc5zoMhdJbljuWUjKzp1Tst2cBXYmgjkAANhRihO9Tig/26+AZ8ysqFfNabBOFb7G7Iha+84oNVpeZ1bSZ6p71Ly+ib2BJhHMAQDAjlGc6JWVDmvSE8olKTBwrkF1fVmpviHlh847FfippKzpVP32l8WUxkPOuslYVj2ekG2nbSUqrx/S4KzWtzfQBII5AADwiYKG457qc98ZFb3T00Oy0gXvSBPalDw7r/xAm/Nre1ARc0lFVGPuuuj9SVnTF6pV89hhRSWp/aAGQ+XB9ewNXB3BHAAA+ITRY25UxaWoJsvVbDO0r2V2xHND6ZAy5nxZyJJljrmsUNAccjS7N9AEgjkAANgZ3Kp19MR5jSmlnqaelDKnwWRWiVQ58KeVMJeULdqyyz8XPD83tI69gSYQzAEAwA7TpuRjSSl9xO31bl5xIrVGVTurjLtf9mK22r7SpLX3Bq6OYA4AAHae9n5NDgWVSXZqcHatp7J06WF3XWtHp3qU1FiooHy9VvVQVDrtrltIyq57M6nXOvYGmrCvVCq9aw4CAABshOcfe1Sv5ub1ma8/qBtu3G9O+8fsiFpPWzWPYMTO8+bly5r/wRNqvyem0NF7zWnfo2IOAAAA+ADBHAAAoPuROk+BAbYWwRwAAADwAYI5AAAA4AMEcwAAAMAHCOYAAACADxDMAQAAAB8gmAMAAAA+QDAHAAAAfIBgDgAAAPgAwRwAAADwAYI5AAAA4AMEcwAAsP2WzijS0alW8xidkyRlR6s/l2VHO9Xa0avUUs3wHrOsVF+nBmfNcexEBHMAAOATQY1NzWsl5zlOdJmLJDeU9ywkZefOKdluzgI7E8EcAADsKMWJXieUn+1XwDNmVtS9nOq6czjVZafSHOnrXTVWb12lIj07otaOEWU9+0YmlstvU9/siFr7RjRY2bta5a99vfe93J8nqv9JiEwsez5H9RwkSYXadRU1/4nwvGZ2RK19vc5c3xkVq6/ANiKYAwCAHaM40SsrHdakJ5RLUmDgXMPqenGiVz1KOxX4qaTyyWpAtcNJreTmNd4tZUePaDjsrktFlUn2KrXUpp5YUPmCE3aLhQVZIclekqRl2QtBDR5s875dfYtZ6di8VnLnNRYqaPj7jS8ivDLT0qR7Pnb6iIZD5909shr2BPBM2taY+/mUHnKD/5wG4ylFUs5/HyZjWfV4Q/iiNDg1rxXjb4ntQzAHAAA+UdBw3NNfblZyp4dkpQvekSYsa3K6oMQhN7S39yufe0RRd9YKBd2f5pSZVnVd9wMaCxWUL0iBYFj29IyKkuzFsMaOSfmCpKUZjSuunqZaaaJKdEuSE/SbZcUOOqE5aMlSVGMDbZLaZIWNdUMPOJ+pvV9jsYLGZ5al2QvKVN5Xit6flLVoy668KiyrqXPHViGYAwAAnzB6zFdVcqOarFf5XVNB+UVzrCoSrK12Z5LlC4MjGl6UUynvPqzEoi1bc8osWLKClvIX56SCLTscbK7aHLJkmWNNMM+vkcbrsuopX+jEU7K14Fb7r/2csHkI5gAAYGeIHVZUUvTEeY0ppZ6r9XZLkoKKhMyxRlbffJofaJPUpURsQfZsQflwUIH2oCILBaUuZqsV9g2x9kXEWsqtNk57jWcilJTtvZmWm2V9jWAOAAB2mDYlH0tK6SNNPCbQafvIXHR7upfOKFL3EYtdSsQ8vd/uTZPl/a2QNH56SgoFnbXhKY0vVNtErke5TcZpPbk2lT2WZjS+6Pa9dx9WYjGlh93PUJzoXX3TKHyFYA4AAHae9n5NDgWVSTrhea2nskRPnNfYwlClnSOSql81Ntdp6LzG3eAdOBh3bpZ0b/S0QpIddir41yN6Iq3EYkpWR6daL1oaa7q6XysRk9OyUvP5ujQ+lVTebc+x0tLYVLW/Hv6zr1QqvWsOAgAAbITnH3tUr+bm9ZmvP6gbbtxvTgMb6s3LlzX/gyfUfk9MoaP3mtO+R8UcAADgesyOVJ8kYx4NqvhAPQRzAACA69H9SO23lXqPBs9WB+qhlQUAAGyaciuLdSRuTgGbwj4/tWNbWQjmAABg05SDObCVCOYAAACG5Wd+ag4BW6LtD/7QHPI9gjkAAADgA9z8CQAAAPgAwRwAAADwAYI5AAAA4AMEcwAAAMAHCOYAAACADxDMAQAAAB8gmAMAAN8pnjqglo6UiuaEoXjqgFruy5rDwI5EMAcAAAB8gGAOAAD8YXpALS0tamk5oG/+onaqeOqAO+fMp37prA8/ZEtPxqtV88oeLU1V3KWiUh0tOtDh7D8wLUlZDVTeq8VTkXfWDtzneQ9vtd7z3gP3DdS+/7rPC3sRwRwAAGy/X6Z04PMZJZ4qqVSa0t15uzo3PaDwQxFNlUoqlUqaOmrr+LezUmxCC9+xpKNTKv191N0jr5MvllQqLeikjivcZJuLHTmpUqmkiVhRqY648t9ZUKlUUunFk7KePO5cCLgy+bu1UCqp9FRCqsxlNVA5/wXdnc9UX3Ad54W9hWAOAAC2n/2c7DtP6lsxSQooeSJRnYtNqFSaUNT91fqEVZ3zKE79g+w7v6SeO1TdI283VZ2u7hlQMlfSz74WcH69w1LEu1CS1d+jgCTFvqDKWU7/SJkG538954W9hWAOAAC2XXEhbw55OC0k5VaQ8EOearrpheMKl1tGPp+RXnhOa6yuiITdIC6j7aQlLk/tWzLXutY+/2s/L+wtBHMAALDtAmGzLl1VPBXXcZ102kdKJad9pZGjU04LSuWoVtqb421JcdpqPLX7htY6f2kjzgt7AcEcAABsv9gXlHjhuL45LadCPmrWqcuy+maDinkg/qWafvDsfdd/o2Xx1PFVFfO61jj/zTgv7E4EcwAA4ANRTTyVUObzLWppCeu5/pOqdH1/7aQSlVaQH+kLT1V7tAPhSPWpLHck9bOnIjr+cadlJP5kQlO5pNMP3rSovvUdyz2PFsV1UifvtPVc/WsBD+/5x6V+T519Q84Le8G+Uqn0rjkIAACAa5e9r0VxuU+LAZpExRwAAOxq2fuqN46ah/Pc8g3wy5QOePaN509qgVCOdaJiDgAAAPgAFXMAAADABwjmAAAAgA8QzAEAAAAfIJgDAAAAPkAwBwAAAHyAYA4AAAD4AMEcAAAA8AGCOQAAAOADBHMAAADABwjmAAAAgA8QzAEAAAAfIJgDAAAAPvD/ERuKHcY9Wy0AAAAASUVORK5CYII=;" vertex="1" parent="1">
          <mxGeometry x="-610" y="150" width="1072.18" height="787.52" as="geometry" />
        </mxCell>
      </root>
    </mxGraphModel>
  </diagram>
</mxfile>
